<svg width="23" height="16" viewBox="0 0 23 16" fill="none" xmlns="http://www.w3.org/2000/svg">
<path d="M8.39667 0.468544L20.5946 6.69997L22.5189 11.6275L22.1806 11.8L14.9936 15.4663L0.565752 8.1062L2.33135 3.62856L8.39667 0.468544ZM2.82958 4.73481L1.65522 7.71308L6.4518 10.16L3.33903 4.99337L2.82958 4.73476V4.73481ZM7.01891 6.86003L10.1407 12.0417L12.0896 13.0359L8.7131 7.7194L7.01891 6.85998V6.86003ZM20.0826 7.77847L18.7633 8.44777L21.2893 10.8686L20.0826 7.77847ZM10.2226 8.48515L13.5907 13.7884L13.5785 13.7955L14.3833 14.2061L14.1123 10.4583L10.2226 8.48515ZM17.955 8.85769L17.1616 9.26017L19.9886 11.9693L20.7803 11.5654L17.955 8.85769ZM14.983 10.3834L15.2717 14.3755L17.8019 13.0848L14.983 10.3834Z" fill="#00406E"/>
</svg>
