<svg width="16" height="22" viewBox="0 0 16 22" fill="none" xmlns="http://www.w3.org/2000/svg">
<path fill-rule="evenodd" clip-rule="evenodd" d="M13.4789 1.6993L13.4539 1.7452L13.3781 1.88288L14.2421 2.4037L14.3199 2.26202L14.3439 2.22011L14.303 2.19517L13.5238 1.72624L13.4789 1.6993ZM13.8061 3.88831L12.3375 3.00333L9.67851 4.31035C8.63334 4.80606 7.82391 5.69143 7.42365 6.77674L7.48251 6.7468C8.07145 6.45238 8.73242 6.33284 9.38717 6.40233C10.0419 6.47182 10.6631 6.72743 11.1771 7.13891C11.6929 7.55197 12.3843 7.67469 13.0119 7.46617L14.0645 7.11497L14.0545 6.98227L13.8061 3.88831ZM15.5591 7.87723C15.6044 7.74085 15.6093 7.59427 15.5731 7.45519C15.5731 7.32449 15.5691 7.19279 15.5611 7.06209L15.5461 6.86952L15.2847 3.60995L15.6389 2.96941C15.6986 2.86638 15.7539 2.76086 15.8046 2.65313C15.8574 2.53739 15.9153 2.37975 15.9243 2.18719C15.9361 1.93015 15.8682 1.67575 15.7297 1.45885C15.6408 1.32386 15.5266 1.20732 15.3935 1.11563C15.2955 1.04754 15.1946 0.98363 15.0912 0.924066L15.0752 0.914088L14.278 0.433184C14.1705 0.366802 14.0607 0.304238 13.9488 0.245611C13.7973 0.166714 13.6313 0.119526 13.4609 0.106927C13.1917 0.0910101 12.9246 0.162774 12.6996 0.311461C12.5585 0.407297 12.4383 0.530863 12.3464 0.674634C12.2816 0.772411 12.2157 0.892138 12.1549 1.00189L11.8326 1.58356L9.01203 2.9704L8.84441 3.05322C7.22211 3.88632 6.07871 5.45275 5.73549 7.2766C5.72552 7.32648 5.71654 7.37936 5.70157 7.46617L5.70057 7.47315L5.67064 7.64675C5.40219 9.13944 4.67092 10.5098 3.5804 11.5638L2.77823 12.353C2.27537 12.8479 1.8703 13.246 1.56699 13.5902C1.25769 13.9394 1.00826 14.2816 0.858599 14.6747C0.661168 15.1941 0.591022 15.7531 0.654034 16.3052C0.717046 16.8572 0.911383 17.386 1.22077 17.8475C1.45624 18.1967 1.77751 18.4721 2.15764 18.7395C2.52979 19.0019 3.01469 19.2932 3.61432 19.6554L4.3257 20.0844C4.92534 20.4446 5.41023 20.7369 5.81431 20.9425C6.22538 21.152 6.61848 21.3076 7.03653 21.3466C7.58501 21.3961 8.13704 21.3043 8.64003 21.0801C9.14302 20.8558 9.58022 20.5065 9.90998 20.0655C10.1634 19.7322 10.322 19.3361 10.4567 18.8852C10.5894 18.4412 10.7171 17.8765 10.8758 17.1741L11.1302 16.0546L11.1691 15.885C11.5146 14.4116 12.3167 13.0851 13.4609 12.0946L13.4669 12.0896L13.6076 11.9649C14.7603 10.9046 15.4594 9.44029 15.5591 7.87723ZM13.8969 8.74825L13.4848 8.88593C12.939 9.06782 12.3563 9.11016 11.7899 9.00908C11.2235 8.908 10.6915 8.66672 10.2422 8.30725C9.95139 8.07449 9.59995 7.92993 9.22952 7.89068C8.85908 7.85143 8.48515 7.91912 8.15199 8.08575L6.96868 8.67741C6.57477 10.1197 5.81528 11.4359 4.76371 12.4987L4.634 12.6284L3.84679 13.4007C3.31999 13.9195 2.95183 14.2816 2.68843 14.58C2.42603 14.8773 2.31229 15.0609 2.25642 15.2085C2.02893 15.8072 2.10676 16.4856 2.46095 17.0114C2.54775 17.1391 2.69741 17.2908 3.01868 17.5153C3.34194 17.7438 3.78094 18.0082 4.41051 18.3873L5.074 18.7864C5.70357 19.1665 6.14257 19.4299 6.49277 19.6085C6.84197 19.7861 7.03753 19.844 7.17621 19.8569C7.76088 19.9118 8.34156 19.6574 8.7167 19.1625C8.81049 19.0398 8.90627 18.8442 9.023 18.4561C9.13874 18.067 9.25647 17.5522 9.4221 16.8169L9.67153 15.7194L9.71343 15.5378C10.1159 13.8261 11.0289 12.2771 12.3315 11.0959L12.4682 10.9752L12.4721 10.9712L12.5999 10.8584C13.2199 10.2893 13.6691 9.55853 13.8969 8.74825Z" fill="#00406E"/>
</svg>
