<svg width="24" height="24" viewBox="0 0 24 24" fill="none" xmlns="http://www.w3.org/2000/svg">
<path d="M15.9773 16.2952V20.5907H4.52276V3.40887H11.6819V1.97705H4.52276C4.14302 1.97705 3.77883 2.1279 3.51031 2.39642C3.24179 2.66494 3.09094 3.02913 3.09094 3.40887V20.5907C3.09094 20.9704 3.24179 21.3346 3.51031 21.6031C3.77883 21.8717 4.14302 22.0225 4.52276 22.0225H15.9773C16.357 22.0225 16.7212 21.8717 16.9898 21.6031C17.2583 21.3346 17.4091 20.9704 17.4091 20.5907V16.2952H15.9773Z" fill="#F8F8F8"/>
<path d="M21.3752 4.66894L19.0127 2.30644C18.7986 2.09656 18.5107 1.979 18.2109 1.979C17.9111 1.979 17.6232 2.09656 17.4091 2.30644L7.38635 12.3292V16.2953H11.3453L21.3681 6.27258C21.5779 6.05846 21.6955 5.77058 21.6955 5.47076C21.6955 5.17093 21.5779 4.88306 21.3681 4.66894H21.3752ZM10.7511 14.8635H8.81817V12.9305L15.5764 6.16519L17.5165 8.1053L10.7511 14.8635ZM18.5259 7.09587L16.5858 5.15576L18.2109 3.53064L20.151 5.47076L18.5259 7.09587Z" fill="#F8F8F8"/>
</svg>
