<svg width="480" height="477" viewBox="0 0 480 477" fill="none" xmlns="http://www.w3.org/2000/svg">
<path d="M414.19 341.64L429.51 327.26C430.12 327.41 411.99 347.05 412.59 347.2C416.44 340.19 423.35 333.09 426.79 325.88C434.91 308.82 440.61 290.95 444.24 272.35C445.57 265.53 441.35 262.32 435.56 262.48C420.01 262.9 405.58 267.23 391.75 274C372.88 283.25 356.22 295.81 339.79 308.72C319.68 324.51 298.67 338.68 273.49 345.23C268.04 346.65 262.48 347.69 256.95 348.77C251.55 349.83 246.46 349.33 241.66 346.12C233.07 340.39 224.28 334.94 215.58 329.38C214.93 328.97 214.26 328.58 213.6 328.2L213.9 326.89C220.85 326.33 227.84 326.03 234.75 325.17C262.98 321.67 288.07 310.32 311.07 294C328.59 281.57 345.65 268.46 363.53 256.57C381.92 244.33 402.28 236.7 424.53 234.82C428.73 234.47 432.92 233.92 437.13 233.72C443.1 233.44 446.18 230.99 445.44 224.93C443.79 211.58 442.71 197.94 439.03 185.1C418.47 113.42 371.26 66.5199 302.18 40.6099C294.12 37.5899 285.67 35.5699 277.63 32.4999C275.6 31.7199 263.48 22.7399 262.14 21.0999C259.25 17.5599 259.81 11.2299 261.74 7.21989C263.69 3.16989 266.85 0.279895 271.57 0.269895C274.67 0.269895 277.81 0.809895 280.86 1.4699C331.35 12.3899 375.81 35.0299 411.97 72.0699C447.36 108.33 468.9 152.11 476.9 202.23C485.88 258.44 474.47 311.01 445.81 359.62C412.17 416.67 362.22 453 298.14 468.69C210.6 490.13 134.21 467.6 69.2001 406.17C45.1501 383.45 28.6201 355.32 16.6701 324.44C4.81012 293.86 -1.45988 262.29 0.290118 229.58C3.76012 164.9 28.6001 109.7 75.4601 64.6399C110.65 30.8099 152.69 10.4599 200.22 0.809895C206.25 -0.410105 212.11 -1.0001 216.57 4.63989C220.07 9.04989 220.31 13.9199 217.01 18.4999C216.45 19.2799 215.94 20.0499 215.29 20.7699C214.54 21.5999 213.94 22.5399 213.37 23.4999C209.07 30.7599 201.42 32.1599 193.79 34.3499C129.79 52.7799 81.9201 91.0199 52.7601 151.34C40.6701 176.35 34.7401 203.1 34.1001 230.92C33.9201 238.77 33.9301 246.62 33.9901 254.47C34.0301 260.42 36.9601 263.67 42.8501 263.72C81.4401 264.07 114.47 279.4 144.55 302C160.84 314.24 176.35 327.51 192.12 340.44C211.16 356.05 231.27 369.87 254.95 377.55C291.8 389.51 328.22 387.78 364.05 373.38C381.07 366.54 396.72 357.36 410.18 344.72C411.18 343.79 412.34 343.03 414.18 341.61L414.19 341.64ZM351.6 409.24C349.49 408.66 348.89 408.3 348.34 408.37C345.7 408.72 343.07 409.13 340.46 409.63C313.93 414.64 287.45 414.86 261.11 408.45C229.57 400.77 201.99 385.31 176.96 365C160.16 351.37 143.8 337.16 126.57 324.1C105.16 307.88 81.4001 296.42 54.3301 293.09C42.6801 291.66 40.3401 294.7 44.0501 306C53.2101 333.9 67.7301 358.85 88.6201 379.33C144.53 434.12 210.73 455.38 288.07 438.06C308.27 433.54 327.31 426.04 345.16 415.6C347.43 414.27 349.04 411.81 351.6 409.23V409.24Z" fill="#00214A"/>
<path d="M176.27 146.12C176.42 135.18 181.75 120.69 190.45 107.21C201.08 90.7504 211.86 74.3704 221.89 57.5404C227 48.9604 230.49 39.4204 235.01 30.4704C235.92 28.6804 238.12 26.6804 239.92 26.4804C241.21 26.3404 243.44 28.7604 244.19 30.4904C255.56 56.8504 270.93 80.8604 287.07 104.45C295.3 116.49 301.44 129.44 303.01 144.2C306.9 180.85 280.23 212 247.6 215.57C205.27 220.2 176.1 186.54 176.28 146.11L176.27 146.12Z" fill="#00214A"/>
</svg>
