<svg width="14" height="26" viewBox="0 0 14 26" fill="none" xmlns="http://www.w3.org/2000/svg">
<path d="M5.7353 8.42675V3.42315C5.7353 2.5966 6.40534 1.92656 7.23189 1.92656V1.92656C8.05843 1.92656 8.72848 2.59661 8.72848 3.42315V8.42675C8.72855 10.0142 9.35911 11.5366 10.4815 12.6591L11.8427 14.0203C12.404 14.5817 12.7194 15.343 12.7194 16.1368V21.8811C12.7194 23.5342 11.3793 24.8743 9.72621 24.8743H4.73757C3.08448 24.8743 1.74438 23.5342 1.74438 21.8811V16.1368C1.74438 15.343 2.05974 14.5817 2.62107 14.0203L3.98229 12.6591C5.10466 11.5366 5.73522 10.0142 5.7353 8.42675Z" stroke="#00406E" stroke-width="1.99546"/>
</svg>
