<svg width="14" height="26" viewBox="0 0 14 26" fill="none" xmlns="http://www.w3.org/2000/svg">
<path d="M5.73542 8.10605V3.10244C5.73542 2.2759 6.40546 1.60585 7.23201 1.60585V1.60585C8.05855 1.60585 8.7286 2.2759 8.7286 3.10244V8.10605C8.72867 9.69346 9.35923 11.2158 10.4816 12.3384L11.8428 13.6996C12.4042 14.261 12.7195 15.0223 12.7195 15.8161V21.5604C12.7195 23.2135 11.3794 24.5536 9.72633 24.5536H4.73769C3.0846 24.5536 1.74451 23.2135 1.74451 21.5604V15.8161C1.74451 15.0223 2.05986 14.261 2.62119 13.6996L3.98241 12.3384C5.10478 11.2158 5.73534 9.69346 5.73542 8.10605Z" stroke="#F8F8F8" stroke-width="1.99546"/>
</svg>
