<svg width="51" height="41" viewBox="0 0 51 41" fill="none" xmlns="http://www.w3.org/2000/svg">
<path d="M27.0183 7.903C27.1113 6.61511 27.5366 5.37334 28.2528 4.2989C28.9689 3.22446 29.9514 2.35407 31.1044 1.77268C32.2573 1.1913 33.5413 0.918787 34.831 0.981757C36.1207 1.04473 37.3721 1.44102 38.4629 2.13196C38.5876 2.21356 38.688 2.32724 38.7536 2.46107C38.8192 2.59489 38.8476 2.74391 38.8357 2.89248C38.8238 3.04104 38.7721 3.18366 38.6861 3.30536C38.6 3.42705 38.4828 3.52332 38.3467 3.58405C36.4504 4.4372 34.8408 5.81965 33.7111 7.56535C32.5814 9.31104 31.9797 11.3458 31.9782 13.4251C31.9782 13.6678 31.9782 13.9105 32.0031 14.1491C32.0146 14.2999 31.9846 14.4509 31.9164 14.5859C31.8482 14.7209 31.7445 14.8347 31.6164 14.915C31.4882 14.9953 31.3406 15.039 31.1894 15.0415C31.0382 15.044 30.8892 15.0051 30.7585 14.9291C29.536 14.2298 28.5361 13.1991 27.8743 11.9559C27.2125 10.7126 26.9158 9.30764 27.0183 7.903ZM50.2332 29.3173C50.2361 30.2655 49.9734 31.1957 49.4748 32.0023C48.9761 32.8089 48.2615 33.4597 47.4119 33.881L47.3207 33.9225L39.2657 37.3536C39.1861 37.3886 39.1034 37.4164 39.0188 37.4365L25.7425 40.7556C25.611 40.7894 25.4759 40.8069 25.3401 40.8075H3.7661C2.88582 40.8075 2.0416 40.4578 1.41916 39.8353C0.796709 39.2129 0.447021 38.3687 0.447021 37.4884V29.1907C0.447021 28.3104 0.796709 27.4662 1.41916 26.8438C2.0416 26.2213 2.88582 25.8716 3.7661 25.8716H9.71761L14.41 21.1772C15.0252 20.5592 15.7569 20.0692 16.5627 19.7356C17.3684 19.402 18.2323 19.2313 19.1044 19.2335H29.4889C30.3655 19.2334 31.2308 19.4317 32.0198 19.8136C32.8089 20.1954 33.5012 20.7509 34.0451 21.4385C34.5889 22.126 34.97 22.9277 35.16 23.7834C35.3499 24.6392 35.3437 25.5269 35.1417 26.3799L43.8211 24.3843C44.5767 24.1842 45.3681 24.1603 46.1344 24.3144C46.9007 24.4684 47.6214 24.7964 48.2409 25.273C48.8604 25.7497 49.3622 26.3622 49.7076 27.0633C50.053 27.7645 50.2328 28.5356 50.2332 29.3173ZM46.9141 29.3173C46.9138 29.0429 46.8503 28.7722 46.7286 28.5263C46.6068 28.2804 46.43 28.0659 46.2119 27.8994C45.9938 27.7328 45.7403 27.6188 45.471 27.5661C45.2018 27.5134 44.924 27.5235 44.6592 27.5955L44.5949 27.6121L30.6962 30.8088C30.5743 30.836 30.4498 30.8499 30.3249 30.8503H23.6805C23.2404 30.8503 22.8183 30.6754 22.5071 30.3642C22.1959 30.053 22.021 29.6308 22.021 29.1907C22.021 28.7506 22.1959 28.3285 22.5071 28.0172C22.8183 27.706 23.2404 27.5312 23.6805 27.5312H29.4889C30.1491 27.5312 30.7823 27.2689 31.2491 26.8021C31.716 26.3352 31.9782 25.7021 31.9782 25.0419C31.9782 24.3817 31.716 23.7485 31.2491 23.2817C30.7823 22.8148 30.1491 22.5526 29.4889 22.5526H19.1044C18.6683 22.5512 18.2364 22.6365 17.8336 22.8035C17.4308 22.9705 17.0653 23.2159 16.7582 23.5255L12.0638 28.2178V37.4884H25.1326L38.0833 34.2502L45.9661 30.8938C46.253 30.7427 46.493 30.5158 46.6602 30.2379C46.8273 29.9599 46.9151 29.6416 46.9141 29.3173ZM35.2973 13.4251C35.2973 14.9021 35.7353 16.346 36.5559 17.5741C37.3765 18.8022 38.5428 19.7593 39.9074 20.3246C41.272 20.8898 42.7735 21.0377 44.2222 20.7495C45.6708 20.4614 47.0014 19.7501 48.0458 18.7057C49.0903 17.6613 49.8015 16.3307 50.0897 14.882C50.3778 13.4334 50.2299 11.9318 49.6647 10.5673C49.0995 9.20268 48.1423 8.03635 46.9142 7.21576C45.6861 6.39518 44.2422 5.95719 42.7652 5.95719C40.7846 5.95719 38.8851 6.74399 37.4846 8.14449C36.0841 9.545 35.2973 11.4445 35.2973 13.4251Z" fill="#002445"/>
</svg>
