<svg width="1183" height="768" viewBox="0 0 1183 768" fill="none" xmlns="http://www.w3.org/2000/svg">
<path d="M728.33 330.15C717.22 436 631.16 516.52 528.48 523.13C480.6 526.21 436.23 514.88 396.27 488.28C343.29 453.01 312.01 403.32 300.95 340.32C293.01 341.48 285.36 340.57 278.01 336.91C290.96 455 399.44 558.99 538.43 545.05C662.94 532.56 741.04 429.38 749.37 340.29C742.24 336.85 735.34 333.53 728.33 330.15ZM726 237.74C729.43 234.12 733.28 230.06 737.13 225.99C709.88 147.17 627.63 69.43 512.86 69.97C399.83 70.5 323.04 146.68 296.54 212.71C304.75 212.71 312.93 212.71 321.12 212.71C332.04 190.94 345.79 171.36 363.32 154.68C416.67 103.89 480.11 83.3 552.44 96.47C625.07 109.7 677.14 151.74 709.56 218.12C710.05 219.12 710.47 220.21 711.19 221.03C716.07 226.62 721.03 232.14 726 237.74ZM204.55 176.27C199.52 195.69 194.5 215.08 189.5 234.39C180.05 234.39 170.99 234.39 161.59 234.39C166.67 214.89 171.68 195.68 176.75 176.23C167.22 176.23 158.25 176.23 149.12 176.23C142.46 186.67 132.83 192.01 120.34 191.92C118.55 198.77 116.87 205.23 114.85 212.98C122.78 211.74 129.8 210.64 137.07 209.5C127.13 247.56 117.1 286 106.98 324.76C117.46 324.76 127.62 324.76 138.01 324.76C143.71 302.91 149.37 281.23 155.05 259.47C164.35 259.47 173.42 259.47 182.96 259.47C177.23 281.3 171.57 302.83 165.82 324.74C176.34 324.74 186.39 324.74 196.83 324.74C209.71 275.37 222.6 225.96 235.57 176.27C224.98 176.27 214.91 176.27 204.55 176.27ZM800.69 232.29C787.74 224.8 774.64 222.88 760.88 228.24C737.35 237.41 720.34 267.44 724.2 292.77C728.09 318.29 749.26 331.88 773.76 324.49C775.16 324.07 777.1 323.07 777.44 321.93C779.48 315.04 781.13 308.03 783 300.73C780.35 301.61 778.2 302.54 775.95 303.01C773.65 303.49 771.25 303.67 768.9 303.69C760.29 303.76 754.8 299.98 753.47 291.55C751.16 276.9 754.03 263.37 765.1 252.64C772.38 245.59 782.01 245.03 790.46 250.71C791.94 251.71 793.35 252.82 795.08 254.09C796.99 246.65 798.79 239.68 800.69 232.29ZM393.74 254.94C396.18 245.61 398.61 236.27 401.14 226.58C387.87 222.92 379.98 230.34 371.84 239.73C372.97 234.92 373.83 231.23 374.75 227.31C364.71 227.31 355.04 227.31 345.16 227.31C336.7 259.78 328.27 292.1 319.77 324.72C330.1 324.72 340.12 324.72 350.22 324.72C352.85 314.71 355.24 304.9 358.02 295.2C360.77 285.64 363.06 275.81 367.1 266.79C372.77 254.15 380.22 251.37 393.74 254.94ZM483.18 692.95C488.17 676.41 493.09 660.1 498.07 643.58C493.64 643.58 489.57 643.58 485.24 643.58C481.95 654.73 478.68 665.77 475.34 677.07C471.8 665.72 468.36 654.69 464.93 643.67C460.22 643.67 455.8 643.67 451.31 643.67C447.93 654.64 444.62 665.37 441.11 676.78C437.65 665.16 434.44 654.35 431.23 643.57C426.55 643.57 422.22 643.57 417.47 643.57C422.54 660.25 427.51 676.64 432.43 692.84C437.62 692.84 442.32 692.84 447.15 692.84C450.54 681.55 453.88 670.43 457.26 659.2C460.69 670.57 464.06 681.75 467.44 692.94C472.78 692.95 477.75 692.95 483.18 692.95ZM367.3 692.93C367.3 676.22 367.3 659.94 367.3 643.65C363.34 643.65 359.66 643.65 355.58 643.65C355.58 653.99 355.58 664.08 355.58 674.82C348.98 663.95 342.78 653.75 336.63 643.63C330.97 643.63 325.55 643.63 320.02 643.63C320.02 660.15 320.02 676.44 320.02 692.77C324.01 692.77 327.78 692.77 331.95 692.77C331.95 682.37 331.95 672.27 331.95 661.79C338.44 672.47 344.65 682.68 350.88 692.92C356.36 692.93 361.7 692.93 367.3 692.93ZM405.67 396.76C405.67 413.45 405.67 429.72 405.67 445.9C409.9 445.9 413.82 445.9 418.1 445.9C418.1 439.19 418.1 432.76 418.1 426.3C425.13 426.3 431.79 426.3 438.86 426.3C438.86 432.97 438.86 439.4 438.86 445.91C443.18 445.91 447.08 445.91 451.03 445.91C451.03 429.45 451.03 413.26 451.03 396.89C446.92 396.89 443.02 396.89 438.69 396.89C438.69 403.2 438.69 409.25 438.69 415.26C431.57 415.26 424.89 415.26 417.83 415.26C417.83 408.99 417.83 402.94 417.83 396.76C413.6 396.76 409.76 396.76 405.67 396.76ZM716.73 643.39C712.16 643.39 708.46 643.53 704.78 643.34C702.4 643.21 700.9 644 699.49 645.93C695.17 651.82 690.64 657.56 686.19 663.35C685.93 663.28 685.67 663.21 685.41 663.13C685.41 656.62 685.41 650.11 685.41 643.69C681 643.69 677.08 643.69 673.1 643.69C673.1 660.19 673.1 676.39 673.1 692.74C677.3 692.74 681.3 692.74 685.62 692.74C685.62 685.64 685.62 678.85 685.62 671.12C690.79 678.24 695.36 684.59 700.01 690.88C700.63 691.72 701.57 692.89 702.4 692.92C707.3 693.11 712.22 693.02 717.9 693.02C710.86 684.02 704.35 675.7 697.75 667.26C704.01 659.39 710.1 651.73 716.73 643.39ZM570.88 425.28C576.63 425.28 582.17 425.28 587.8 425.28C587.8 422.03 587.8 419.23 587.8 416.01C582.04 416.01 576.48 416.01 570.99 416.01C570.99 412.54 570.99 409.5 570.99 406.17C577.02 406.17 582.72 406.17 588.48 406.17C588.48 402.84 588.48 399.81 588.48 396.96C578.27 396.96 568.37 396.96 558.47 396.96C558.47 413.48 558.47 429.67 558.47 445.98C568.62 445.98 578.53 445.98 588.58 445.98C588.58 442.71 588.58 439.65 588.58 436.13C582.59 436.13 576.79 436.13 570.88 436.13C570.88 432.35 570.88 429.04 570.88 425.28ZM381.66 643.53C381.66 660.24 381.66 676.52 381.66 692.84C391.85 692.84 401.77 692.84 411.79 692.84C411.79 689.56 411.79 686.52 411.79 683.05C405.76 683.05 399.97 683.05 394.16 683.05C394.16 679.3 394.16 676 394.16 672.18C399.9 672.18 405.42 672.18 410.95 672.18C410.95 668.85 410.95 666.04 410.95 662.78C405.2 662.78 399.67 662.78 394.16 662.78C394.16 659.38 394.16 656.44 394.16 653.12C400.17 653.12 405.97 653.12 411.73 653.12C411.73 649.69 411.73 646.65 411.73 643.54C401.61 643.53 391.78 643.53 381.66 643.53ZM516.64 643.5C517.34 645.07 517.79 646.2 518.34 647.27C522.98 656.24 527.7 665.16 532.22 674.19C533.13 676 533.6 678.18 533.71 680.21C533.94 684.38 533.78 688.58 533.78 692.86C538.18 692.86 541.98 692.86 545.97 692.86C546.05 692.07 546.23 691.46 546.14 690.88C544.5 680.38 548.24 671.34 553.68 662.74C554.48 661.48 555.11 660.11 555.8 658.79C558.37 653.87 560.93 648.94 563.71 643.6C559.06 643.6 555.01 643.6 550.82 643.6C547.33 650.51 543.87 657.37 540.35 664.33C536.94 657.31 533.58 650.38 530.23 643.49C525.75 643.5 521.52 643.5 516.64 643.5ZM526.33 407C526.33 420.36 526.33 433.06 526.33 445.9C530.59 445.9 534.49 445.9 538.77 445.9C538.77 432.82 538.77 420.01 538.77 406.91C543.11 406.91 547.07 406.91 551.1 406.91C551.1 403.32 551.1 400.06 551.1 396.85C538.34 396.85 525.9 396.85 513.35 396.85C513.35 400.27 513.35 403.45 513.35 407C517.61 407 521.69 407 526.33 407ZM599.76 396.76C599.76 413.46 599.76 429.72 599.76 445.98C609.26 445.98 618.45 445.98 627.83 445.98C627.83 442.37 627.83 438.96 627.83 435.02C622.45 435.02 617.31 435.02 611.84 435.02C611.84 421.94 611.84 409.4 611.84 396.76C607.66 396.76 603.83 396.76 599.76 396.76Z" fill="black"/>
<path d="M728.33 330.15C735.35 333.53 742.24 336.85 749.37 340.29C741.04 429.37 662.94 532.55 538.43 545.05C399.44 558.99 290.96 455 278.01 336.9C285.36 340.56 293.01 341.47 300.95 340.31C312.01 403.31 343.29 453 396.27 488.27C436.23 514.87 480.6 526.2 528.48 523.12C631.16 516.52 717.21 435.99 728.33 330.15Z" fill="black"/>
<path d="M726 237.74C721.02 232.14 716.07 226.61 711.18 221.03C710.46 220.21 710.04 219.12 709.55 218.12C677.13 151.74 625.06 109.7 552.43 96.47C480.09 83.3 416.65 103.89 363.31 154.68C345.79 171.36 332.04 190.94 321.11 212.71C312.92 212.71 304.74 212.71 296.53 212.71C323.03 146.68 399.82 70.5 512.85 69.97C627.62 69.43 709.87 147.17 737.13 225.99C733.29 230.06 729.43 234.12 726 237.74Z" fill="black"/>
<path d="M535.41 191.91C547.51 191.91 556.84 187.05 563.58 177.25C564.03 176.6 565.25 176.14 566.1 176.15C579.07 176.34 592.13 175.69 604.98 177.08C634.07 180.24 648.46 208.44 634.65 234.35C626.92 248.84 614.78 258.1 598.73 262.77C607.06 269.48 611.98 278.16 613.76 288.38C614.76 294.1 614.78 300.04 614.79 305.88C614.8 311.49 614.32 317.1 613.92 322.7C613.06 334.55 620.19 339.97 631.41 335.9C631.99 335.69 632.55 335.45 633.59 335.03C635.1 341.53 636.59 347.88 638.09 354.32C630.45 361.07 621.54 363.01 611.9 362.45C604.24 362.01 597.18 359.85 591.34 354.6C583.47 347.53 582.2 338.31 583.18 328.52C584.19 318.47 585.96 308.48 586.58 298.41C587.26 287.27 583.04 277.89 573.98 271.04C572.34 269.8 570.35 269.01 568.05 267.75C562.98 287.07 558.05 305.83 553.08 324.75C542.7 324.75 532.54 324.75 522.07 324.75C532.19 285.99 542.23 247.54 552.17 209.45C544.99 210.6 538 211.72 529.94 213.01C531.97 205.15 533.67 198.61 535.41 191.91ZM573.85 245.52C594.17 248.04 608.81 235.26 608.2 215.9C607.84 204.61 601.14 195.8 586.07 198.51C582.01 214.13 577.93 229.8 573.85 245.52Z" fill="black"/>
<path d="M204.55 176.27C214.91 176.27 224.98 176.27 235.57 176.27C222.6 225.97 209.71 275.37 196.83 324.74C186.38 324.74 176.34 324.74 165.82 324.74C171.57 302.83 177.23 281.3 182.96 259.47C173.42 259.47 164.35 259.47 155.05 259.47C149.37 281.23 143.71 302.91 138.01 324.76C127.63 324.76 117.47 324.76 106.98 324.76C117.1 286 127.13 247.56 137.07 209.5C129.8 210.64 122.78 211.74 114.85 212.98C116.87 205.22 118.56 198.77 120.34 191.92C132.83 192.01 142.45 186.68 149.12 176.23C158.26 176.23 167.23 176.23 176.75 176.23C171.68 195.69 166.67 214.9 161.59 234.39C171 234.39 180.05 234.39 189.5 234.39C194.5 215.08 199.52 195.69 204.55 176.27Z" fill="black"/>
<path d="M828.12 176.27C838.25 176.27 848.2 176.27 858.46 176.27C853.38 195.92 848.37 215.33 843.09 235.76C844.69 234.51 845.5 233.9 846.29 233.26C854.3 226.71 863.5 224.25 873.61 225.87C889.18 228.35 897.25 242.08 892.52 257.93C888.7 270.74 879.31 278.5 867.81 284.04C864.02 285.87 859.89 287.01 855.69 288.55C855.99 288.99 856.3 289.62 856.76 290.09C863.32 296.72 866.4 304.83 866.86 314.01C867.05 317.75 866.88 321.51 866.9 325.26C866.93 333.31 870.81 336.37 878.67 334.49C880.11 334.15 881.5 333.61 883.12 333.1C884.41 338.87 885.79 344.56 886.86 350.31C887.05 351.31 886.25 352.97 885.38 353.62C876.29 360.39 858.27 360.23 849.27 353.39C843.39 348.92 840.51 342.83 840.57 335.56C840.64 327.82 841.39 320.09 841.44 312.35C841.5 303.78 836.28 297.16 827.72 294.78C825.08 304.71 822.44 314.64 819.76 324.75C809.65 324.75 799.74 324.75 789.38 324.75C802.34 275.06 815.22 225.73 828.12 176.27ZM832.26 276.8C835.39 276.45 837.75 276.37 840.02 275.9C850 273.86 858.74 269.75 864.11 260.52C866.82 255.86 866.77 251.15 864.35 248.6C861.95 246.08 857.1 245.76 852.46 248.33C841.54 254.39 835.73 264.2 832.26 276.8Z" fill="black"/>
<path d="M469.56 324.8C460.92 324.8 452.73 324.8 444.07 324.8C444.89 321.3 445.65 318.09 446.6 314.05C444.81 315.85 443.62 317.13 442.34 318.3C426.59 332.72 404.17 326.98 396.24 306.5C392.08 295.78 393.18 284.87 395.53 274.05C398.97 258.26 405.98 244.38 418.86 234.13C427.05 227.62 436.29 224.06 447.01 225.57C453.25 226.45 458.17 229.54 462.51 234.92C467.73 215.03 472.8 195.71 477.9 176.27C488.01 176.27 497.95 176.27 508.3 176.27C495.36 225.9 482.49 275.23 469.56 324.8ZM423.33 286.27C424.02 289.79 424.34 293.44 425.5 296.8C427.33 302.1 431.81 304.07 436.87 301.63C439.79 300.22 442.6 298 444.67 295.49C450.72 288.19 453.93 279.48 454.58 270.13C454.93 265.04 454.48 259.63 453.05 254.76C451.41 249.17 446.45 247.21 441.4 250.05C437.65 252.16 434.11 255.38 431.64 258.92C426.02 266.99 424.03 276.4 423.33 286.27Z" fill="black"/>
<path d="M290.25 236.6C291.18 233.23 292 230.25 292.83 227.24C302.7 227.24 312.29 227.24 322.4 227.24C321.17 232.14 320.04 236.81 318.83 241.45C314.34 258.72 309.82 275.98 305.31 293.25C305.09 294.09 304.85 294.94 304.72 295.79C304 300.52 305.59 302.29 310.4 302.08C311.74 302.02 313.07 301.76 314.99 301.52C313.23 308.4 311.85 315.1 309.65 321.5C309.06 323.22 306.1 324.52 303.97 325.25C291.1 329.63 281.54 325.32 275.21 312.38C274.47 313.28 273.76 314.12 273.08 314.97C260.01 331.3 237.41 329.9 226.48 312.07C222.3 305.25 220.74 297.76 221.04 289.84C221.76 271.02 227.2 253.86 240.25 239.94C244.51 235.4 249.89 231.49 255.47 228.73C266.97 223.03 280.48 222.77 290.25 236.6ZM251.04 286.04C251.39 288.75 251.49 291.52 252.12 294.16C254.19 302.77 260.78 305.16 267.8 299.77C270.03 298.05 272.08 295.89 273.66 293.56C279.41 285.11 282.46 275.69 282.39 265.45C282.37 261.91 281.89 258.19 280.71 254.87C278.77 249.41 274.09 247.33 269.01 249.99C265.51 251.82 262.19 254.68 259.84 257.87C253.72 266.13 251.58 275.86 251.04 286.04Z" fill="black"/>
<path d="M627.81 286.51C628.65 265.13 635.67 246.62 653.69 233.83C665.49 225.45 678.74 222.66 692.78 227.18C706.26 231.52 713.05 241.84 715.86 255.18C720.65 277.97 710.18 304.26 690.98 317.43C680.72 324.47 669.3 327.83 656.94 325.78C640.52 323.05 628.67 308.52 627.83 291.01C627.75 289.51 627.81 288.01 627.81 286.51ZM687.77 265.3C687.77 263.68 687.94 262.03 687.74 260.44C687.07 255.15 686.24 249.43 680.42 247.59C674.37 245.67 669.9 249.45 666.37 253.95C660.33 261.68 657.5 270.76 657.07 280.37C656.82 285.98 657.23 291.91 658.84 297.25C660.8 303.75 666.77 305.21 672.32 301.19C674.89 299.33 677.22 296.86 679 294.23C684.88 285.53 687.66 275.78 687.77 265.3Z" fill="black"/>
<path d="M800.69 232.29C798.79 239.67 796.99 246.65 795.07 254.08C793.34 252.81 791.93 251.7 790.45 250.7C782.01 245.02 772.37 245.58 765.09 252.63C754.02 263.36 751.16 276.9 753.46 291.54C754.79 299.97 760.28 303.75 768.89 303.68C771.25 303.66 773.64 303.47 775.94 303C778.19 302.54 780.34 301.6 782.99 300.72C781.12 308.02 779.47 315.03 777.43 321.92C777.09 323.05 775.15 324.06 773.75 324.48C749.25 331.87 728.08 318.28 724.19 292.76C720.33 267.43 737.34 237.4 760.87 228.23C774.64 222.89 787.74 224.81 800.69 232.29Z" fill="black"/>
<path d="M393.74 254.94C380.22 251.37 372.77 254.15 367.1 266.8C363.06 275.82 360.77 285.65 358.02 295.21C355.23 304.91 352.84 314.72 350.22 324.73C340.11 324.73 330.09 324.73 319.77 324.73C328.27 292.1 336.7 259.78 345.16 227.32C355.04 227.32 364.71 227.32 374.75 227.32C373.83 231.24 372.97 234.93 371.84 239.74C379.98 230.35 387.88 222.93 401.14 226.59C398.61 236.27 396.18 245.6 393.74 254.94Z" fill="black"/>
<path d="M483.18 692.95C477.75 692.95 472.78 692.95 467.43 692.95C464.06 681.76 460.68 670.58 457.25 659.21C453.88 670.44 450.54 681.56 447.14 692.85C442.31 692.85 437.62 692.85 432.42 692.85C427.5 676.65 422.52 660.26 417.46 643.58C422.21 643.58 426.54 643.58 431.22 643.58C434.43 654.36 437.64 665.17 441.1 676.79C444.62 665.38 447.92 654.65 451.3 643.68C455.78 643.68 460.21 643.68 464.92 643.68C468.35 654.69 471.79 665.73 475.33 677.08C478.67 665.79 481.93 654.74 485.23 643.59C489.56 643.59 493.64 643.59 498.06 643.59C493.08 660.1 488.16 676.42 483.18 692.95Z" fill="black"/>
<path d="M367.3 692.93C361.7 692.93 356.36 692.93 350.88 692.93C344.65 682.68 338.44 672.48 331.95 661.8C331.95 672.28 331.95 682.38 331.95 692.78C327.78 692.78 324.01 692.78 320.02 692.78C320.02 676.45 320.02 660.17 320.02 643.64C325.54 643.64 330.97 643.64 336.63 643.64C342.78 653.76 348.97 663.96 355.58 674.83C355.58 664.09 355.58 653.99 355.58 643.66C359.66 643.66 363.34 643.66 367.3 643.66C367.3 659.93 367.3 676.22 367.3 692.93Z" fill="black"/>
<path d="M459.05 421.81C459.13 411.77 463.18 403.82 472.13 399.08C481.59 394.06 491.39 394.05 500.63 399.67C509.23 404.9 512.72 416.89 509.58 428.38C506.69 438.97 497.2 446.41 485.94 446.92C468.9 447.7 459.04 438.48 459.05 421.81ZM484.26 435.87C492.33 435.93 497.32 430.48 497.4 421.53C497.48 412.47 492.54 406.5 484.93 406.45C477.54 406.4 472.3 412.42 472.23 421.03C472.15 430.26 476.65 435.81 484.26 435.87Z" fill="black"/>
<path d="M563.79 669.14C563.55 657.73 570.04 648.12 580.62 644.24C591.34 640.31 604.16 642.96 610.13 650.79C616.6 659.28 617 668.91 613.25 678.47C609.6 687.77 601.97 692.49 592.24 693.62C589.06 693.99 585.71 693.91 582.57 693.33C570.44 691.1 564.08 682.73 563.79 669.14ZM577.13 669.08C577.21 669.75 577.27 671.51 577.62 673.2C578.79 678.92 582.84 682.51 588.4 682.89C594.18 683.29 599.01 680.29 601.01 674.96C602.8 670.21 602.64 665.43 600.78 660.75C599.36 657.19 596.8 654.82 593 653.87C584.08 651.64 577.16 657.8 577.13 669.08Z" fill="black"/>
<path d="M405.67 396.76C409.77 396.76 413.6 396.76 417.83 396.76C417.83 402.94 417.83 408.99 417.83 415.26C424.9 415.26 431.58 415.26 438.69 415.26C438.69 409.25 438.69 403.2 438.69 396.89C443.02 396.89 446.91 396.89 451.03 396.89C451.03 413.26 451.03 429.45 451.03 445.91C447.08 445.91 443.18 445.91 438.86 445.91C438.86 439.4 438.86 432.97 438.86 426.3C431.79 426.3 425.13 426.3 418.1 426.3C418.1 432.76 418.1 439.2 418.1 445.9C413.83 445.9 409.9 445.9 405.67 445.9C405.67 429.72 405.67 413.45 405.67 396.76Z" fill="black"/>
<path d="M624.96 643.48C632.83 643.48 640.45 643.01 647.99 643.59C658.56 644.4 663.98 652.08 661.39 661.67C659.9 667.2 655.69 669.92 650.16 671.67C654.93 678.7 659.59 685.56 664.67 693.04C659.56 693.04 655.13 693.17 650.72 692.93C649.8 692.88 648.73 691.62 648.12 690.68C644.67 685.39 641.33 680.03 637.16 674.88C637.16 680.79 637.16 686.69 637.16 692.83C632.87 692.83 629.06 692.83 624.97 692.83C624.96 676.51 624.96 660.22 624.96 643.48ZM637.36 652.76C637.36 656.93 637.36 660.98 637.36 665.13C641.32 665.62 645.37 666.11 647.55 662.24C648.52 660.52 648.66 657.36 647.71 655.71C645.52 651.91 641.41 652.44 637.36 652.76Z" fill="black"/>
<path d="M716.73 643.39C710.1 651.73 704 659.39 697.74 667.27C704.34 675.71 710.85 684.03 717.89 693.03C712.21 693.03 707.29 693.13 702.39 692.93C701.56 692.9 700.62 691.73 700 690.89C695.36 684.59 690.78 678.24 685.61 671.13C685.61 678.86 685.61 685.65 685.61 692.75C681.29 692.75 677.29 692.75 673.09 692.75C673.09 676.4 673.09 660.21 673.09 643.7C677.08 643.7 680.99 643.7 685.4 643.7C685.4 650.12 685.4 656.63 685.4 663.14C685.66 663.21 685.92 663.28 686.18 663.36C690.63 657.56 695.16 651.83 699.48 645.94C700.89 644.01 702.4 643.22 704.77 643.35C708.47 643.54 712.17 643.39 716.73 643.39Z" fill="black"/>
<path d="M570.88 425.28C570.88 429.04 570.88 432.35 570.88 436.13C576.79 436.13 582.59 436.13 588.58 436.13C588.58 439.65 588.58 442.71 588.58 445.98C578.54 445.98 568.62 445.98 558.47 445.98C558.47 429.67 558.47 413.48 558.47 396.96C568.36 396.96 578.27 396.96 588.48 396.96C588.48 399.81 588.48 402.84 588.48 406.17C582.71 406.17 577.01 406.17 570.99 406.17C570.99 409.5 570.99 412.53 570.99 416.01C576.49 416.01 582.04 416.01 587.8 416.01C587.8 419.24 587.8 422.04 587.8 425.28C582.17 425.28 576.63 425.28 570.88 425.28Z" fill="black"/>
<path d="M381.66 643.53C391.77 643.53 401.6 643.53 411.73 643.53C411.73 646.65 411.73 649.68 411.73 653.11C405.97 653.11 400.17 653.11 394.16 653.11C394.16 656.43 394.16 659.37 394.16 662.77C399.66 662.77 405.2 662.77 410.95 662.77C410.95 666.03 410.95 668.84 410.95 672.17C405.42 672.17 399.9 672.17 394.16 672.17C394.16 675.99 394.16 679.3 394.16 683.04C399.97 683.04 405.77 683.04 411.79 683.04C411.79 686.51 411.79 689.55 411.79 692.83C401.77 692.83 391.85 692.83 381.66 692.83C381.66 676.51 381.66 660.23 381.66 643.53Z" fill="black"/>
<path d="M516.64 643.5C521.52 643.5 525.75 643.5 530.25 643.5C533.6 650.4 536.96 657.32 540.37 664.34C543.89 657.37 547.35 650.52 550.84 643.61C555.03 643.61 559.07 643.61 563.73 643.61C560.95 648.95 558.39 653.87 555.82 658.8C555.13 660.13 554.49 661.49 553.7 662.75C548.25 671.35 544.52 680.39 546.16 690.89C546.25 691.46 546.06 692.08 545.99 692.87C542 692.87 538.19 692.87 533.8 692.87C533.8 688.59 533.96 684.39 533.73 680.22C533.62 678.18 533.15 676.01 532.24 674.2C527.72 665.17 522.99 656.25 518.36 647.28C517.79 646.19 517.34 645.07 516.64 643.5Z" fill="black"/>
<path d="M526.33 407C521.69 407 517.62 407 513.35 407C513.35 403.46 513.35 400.27 513.35 396.85C525.9 396.85 538.34 396.85 551.1 396.85C551.1 400.05 551.1 403.32 551.1 406.91C547.07 406.91 543.12 406.91 538.77 406.91C538.77 420.01 538.77 432.82 538.77 445.9C534.49 445.9 530.59 445.9 526.33 445.9C526.33 433.06 526.33 420.35 526.33 407Z" fill="black"/>
<path d="M599.76 396.76C603.82 396.76 607.66 396.76 611.84 396.76C611.84 409.4 611.84 421.95 611.84 435.02C617.31 435.02 622.45 435.02 627.83 435.02C627.83 438.96 627.83 442.38 627.83 445.98C618.44 445.98 609.25 445.98 599.76 445.98C599.76 429.73 599.76 413.47 599.76 396.76Z" fill="black"/>
</svg>
