<svg width="788" height="625" viewBox="0 0 788 625" fill="none" xmlns="http://www.w3.org/2000/svg">
<path d="M622.33 261.15C629.35 264.53 636.24 267.85 643.37 271.29C635.04 360.37 556.94 463.55 432.43 476.05C293.44 489.99 184.96 386 172.01 267.9C179.36 271.56 187.01 272.47 194.95 271.31C206.01 334.31 237.29 384 290.27 419.27C330.23 445.87 374.6 457.2 422.48 454.12C525.16 447.52 611.21 366.99 622.33 261.15Z" fill="black"/>
<path d="M620 168.74C615.02 163.14 610.07 157.61 605.18 152.03C604.46 151.21 604.04 150.12 603.55 149.12C571.13 82.74 519.06 40.7 446.43 27.47C374.09 14.3 310.65 34.89 257.31 85.68C239.79 102.36 226.04 121.94 215.11 143.71C206.92 143.71 198.74 143.71 190.53 143.71C217.03 77.68 293.82 1.5 406.85 0.969998C521.62 0.429998 603.87 78.17 631.13 156.99C627.29 161.06 623.43 165.12 620 168.74Z" fill="black"/>
<path d="M429.41 122.91C441.51 122.91 450.84 118.05 457.58 108.25C458.03 107.6 459.25 107.14 460.1 107.15C473.07 107.34 486.13 106.69 498.98 108.08C528.07 111.24 542.46 139.44 528.65 165.35C520.92 179.84 508.78 189.1 492.73 193.77C501.06 200.48 505.98 209.16 507.76 219.38C508.76 225.1 508.78 231.04 508.79 236.88C508.8 242.49 508.32 248.1 507.92 253.7C507.06 265.55 514.19 270.97 525.41 266.9C525.99 266.69 526.55 266.45 527.59 266.03C529.1 272.53 530.59 278.88 532.09 285.32C524.45 292.07 515.54 294.01 505.9 293.45C498.24 293.01 491.18 290.85 485.34 285.6C477.47 278.53 476.2 269.31 477.18 259.52C478.19 249.47 479.96 239.48 480.58 229.41C481.26 218.27 477.04 208.89 467.98 202.04C466.34 200.8 464.35 200.01 462.05 198.75C456.98 218.07 452.05 236.83 447.08 255.75C436.7 255.75 426.54 255.75 416.07 255.75C426.19 216.99 436.23 178.54 446.17 140.45C438.99 141.6 432 142.72 423.94 144.01C425.97 136.15 427.67 129.61 429.41 122.91ZM467.85 176.52C488.17 179.04 502.81 166.26 502.2 146.9C501.84 135.61 495.14 126.8 480.07 129.51C476.01 145.13 471.93 160.8 467.85 176.52Z" fill="black"/>
<path d="M98.55 107.27C108.91 107.27 118.98 107.27 129.57 107.27C116.6 156.97 103.71 206.37 90.83 255.74C80.38 255.74 70.34 255.74 59.82 255.74C65.57 233.83 71.23 212.3 76.96 190.47C67.42 190.47 58.35 190.47 49.05 190.47C43.37 212.23 37.71 233.91 32.01 255.76C21.63 255.76 11.47 255.76 0.97998 255.76C11.1 217 21.13 178.56 31.07 140.5C23.8 141.64 16.78 142.74 8.84998 143.98C10.87 136.22 12.56 129.77 14.34 122.92C26.83 123.01 36.45 117.68 43.12 107.23C52.26 107.23 61.23 107.23 70.75 107.23C65.68 126.69 60.67 145.9 55.59 165.39C65 165.39 74.05 165.39 83.5 165.39C88.5 146.08 93.52 126.69 98.55 107.27Z" fill="black"/>
<path d="M722.12 107.27C732.25 107.27 742.2 107.27 752.46 107.27C747.38 126.92 742.37 146.33 737.09 166.76C738.69 165.51 739.5 164.9 740.29 164.26C748.3 157.71 757.5 155.25 767.61 156.87C783.18 159.35 791.25 173.08 786.52 188.93C782.7 201.74 773.31 209.5 761.81 215.04C758.02 216.87 753.89 218.01 749.69 219.55C749.99 219.99 750.3 220.62 750.76 221.09C757.32 227.72 760.4 235.83 760.86 245.01C761.05 248.75 760.88 252.51 760.9 256.26C760.93 264.31 764.81 267.37 772.67 265.49C774.11 265.15 775.5 264.61 777.12 264.1C778.41 269.87 779.79 275.56 780.86 281.31C781.05 282.31 780.25 283.97 779.38 284.62C770.29 291.39 752.27 291.23 743.27 284.39C737.39 279.92 734.51 273.83 734.57 266.56C734.64 258.82 735.39 251.09 735.44 243.35C735.5 234.78 730.28 228.16 721.72 225.78C719.08 235.71 716.44 245.64 713.76 255.75C703.65 255.75 693.74 255.75 683.38 255.75C696.34 206.06 709.22 156.73 722.12 107.27ZM726.26 207.8C729.39 207.45 731.75 207.37 734.02 206.9C744 204.86 752.74 200.75 758.11 191.52C760.82 186.86 760.77 182.15 758.35 179.6C755.95 177.08 751.1 176.76 746.46 179.33C735.54 185.39 729.73 195.2 726.26 207.8Z" fill="black"/>
<path d="M363.56 255.8C354.92 255.8 346.73 255.8 338.07 255.8C338.89 252.3 339.65 249.09 340.6 245.05C338.81 246.85 337.62 248.13 336.34 249.3C320.59 263.72 298.17 257.98 290.24 237.5C286.08 226.78 287.18 215.87 289.53 205.05C292.97 189.26 299.98 175.38 312.86 165.13C321.05 158.62 330.29 155.06 341.01 156.57C347.25 157.45 352.17 160.54 356.51 165.92C361.73 146.03 366.8 126.71 371.9 107.27C382.01 107.27 391.95 107.27 402.3 107.27C389.36 156.9 376.49 206.23 363.56 255.8ZM317.33 217.27C318.02 220.79 318.34 224.44 319.5 227.8C321.33 233.1 325.81 235.07 330.87 232.63C333.79 231.22 336.6 229 338.67 226.49C344.72 219.19 347.93 210.48 348.58 201.13C348.93 196.04 348.48 190.63 347.05 185.76C345.41 180.17 340.45 178.21 335.4 181.05C331.65 183.16 328.11 186.38 325.64 189.92C320.02 197.99 318.03 207.4 317.33 217.27Z" fill="black"/>
<path d="M184.25 167.6C185.18 164.23 186 161.25 186.83 158.24C196.7 158.24 206.29 158.24 216.4 158.24C215.17 163.14 214.04 167.81 212.83 172.45C208.34 189.72 203.82 206.98 199.31 224.25C199.09 225.09 198.85 225.94 198.72 226.79C198 231.52 199.59 233.29 204.4 233.08C205.74 233.02 207.07 232.76 208.99 232.52C207.23 239.4 205.85 246.1 203.65 252.5C203.06 254.22 200.1 255.52 197.97 256.25C185.1 260.63 175.54 256.32 169.21 243.38C168.47 244.28 167.76 245.12 167.08 245.97C154.01 262.3 131.41 260.9 120.48 243.07C116.3 236.25 114.74 228.76 115.04 220.84C115.76 202.02 121.2 184.86 134.25 170.94C138.51 166.4 143.89 162.49 149.47 159.73C160.97 154.03 174.48 153.77 184.25 167.6ZM145.04 217.04C145.39 219.75 145.49 222.52 146.12 225.16C148.19 233.77 154.78 236.16 161.8 230.77C164.03 229.05 166.08 226.89 167.66 224.56C173.41 216.11 176.46 206.69 176.39 196.45C176.37 192.91 175.89 189.19 174.71 185.87C172.77 180.41 168.09 178.33 163.01 180.99C159.51 182.82 156.19 185.68 153.84 188.87C147.72 197.13 145.58 206.86 145.04 217.04Z" fill="black"/>
<path d="M521.81 217.51C522.65 196.13 529.67 177.62 547.69 164.83C559.49 156.45 572.74 153.66 586.78 158.18C600.26 162.52 607.05 172.84 609.86 186.18C614.65 208.97 604.18 235.26 584.98 248.43C574.72 255.47 563.3 258.83 550.94 256.78C534.52 254.05 522.67 239.52 521.83 222.01C521.75 220.51 521.81 219.01 521.81 217.51ZM581.77 196.3C581.77 194.68 581.94 193.03 581.74 191.44C581.07 186.15 580.24 180.43 574.42 178.59C568.37 176.67 563.9 180.45 560.37 184.95C554.33 192.68 551.5 201.76 551.07 211.37C550.82 216.98 551.23 222.91 552.84 228.25C554.8 234.75 560.77 236.21 566.32 232.19C568.89 230.33 571.22 227.86 573 225.23C578.88 216.53 581.66 206.78 581.77 196.3Z" fill="black"/>
<path d="M694.69 163.29C692.79 170.67 690.99 177.65 689.07 185.08C687.34 183.81 685.93 182.7 684.45 181.7C676.01 176.02 666.37 176.58 659.09 183.63C648.02 194.36 645.16 207.9 647.46 222.54C648.79 230.97 654.28 234.75 662.89 234.68C665.25 234.66 667.64 234.47 669.94 234C672.19 233.54 674.34 232.6 676.99 231.72C675.12 239.02 673.47 246.03 671.43 252.92C671.09 254.05 669.15 255.06 667.75 255.48C643.25 262.87 622.08 249.28 618.19 223.76C614.33 198.43 631.34 168.4 654.87 159.23C668.64 153.89 681.74 155.81 694.69 163.29Z" fill="black"/>
<path d="M287.74 185.94C274.22 182.37 266.77 185.15 261.1 197.8C257.06 206.82 254.77 216.65 252.02 226.21C249.23 235.91 246.84 245.72 244.22 255.73C234.11 255.73 224.09 255.73 213.77 255.73C222.27 223.1 230.7 190.78 239.16 158.32C249.04 158.32 258.71 158.32 268.75 158.32C267.83 162.24 266.97 165.93 265.84 170.74C273.98 161.35 281.88 153.93 295.14 157.59C292.61 167.27 290.18 176.6 287.74 185.94Z" fill="black"/>
<path d="M377.18 623.95C371.75 623.95 366.78 623.95 361.43 623.95C358.06 612.76 354.68 601.58 351.25 590.21C347.88 601.44 344.54 612.56 341.14 623.85C336.31 623.85 331.62 623.85 326.42 623.85C321.5 607.65 316.52 591.26 311.46 574.58C316.21 574.58 320.54 574.58 325.22 574.58C328.43 585.36 331.64 596.17 335.1 607.79C338.62 596.38 341.92 585.65 345.3 574.68C349.78 574.68 354.21 574.68 358.92 574.68C362.35 585.69 365.79 596.73 369.33 608.08C372.67 596.79 375.93 585.74 379.23 574.59C383.56 574.59 387.64 574.59 392.06 574.59C387.08 591.1 382.16 607.42 377.18 623.95Z" fill="black"/>
<path d="M261.3 623.93C255.7 623.93 250.36 623.93 244.88 623.93C238.65 613.68 232.44 603.48 225.95 592.8C225.95 603.28 225.95 613.38 225.95 623.78C221.78 623.78 218.01 623.78 214.02 623.78C214.02 607.45 214.02 591.17 214.02 574.64C219.54 574.64 224.97 574.64 230.63 574.64C236.78 584.76 242.97 594.96 249.58 605.83C249.58 595.09 249.58 584.99 249.58 574.66C253.66 574.66 257.34 574.66 261.3 574.66C261.3 590.93 261.3 607.22 261.3 623.93Z" fill="black"/>
<path d="M353.05 352.81C353.13 342.77 357.18 334.82 366.13 330.08C375.59 325.06 385.39 325.05 394.63 330.67C403.23 335.9 406.72 347.89 403.58 359.38C400.69 369.97 391.2 377.41 379.94 377.92C362.9 378.7 353.04 369.48 353.05 352.81ZM378.26 366.87C386.33 366.93 391.32 361.48 391.4 352.53C391.48 343.47 386.54 337.5 378.93 337.45C371.54 337.4 366.3 343.42 366.23 352.03C366.15 361.26 370.65 366.81 378.26 366.87Z" fill="black"/>
<path d="M457.79 600.14C457.55 588.73 464.04 579.12 474.62 575.24C485.34 571.31 498.16 573.96 504.13 581.79C510.6 590.28 511 599.91 507.25 609.47C503.6 618.77 495.97 623.49 486.24 624.62C483.06 624.99 479.71 624.91 476.57 624.33C464.44 622.1 458.08 613.73 457.79 600.14ZM471.13 600.08C471.21 600.75 471.27 602.51 471.62 604.2C472.79 609.92 476.84 613.51 482.4 613.89C488.18 614.29 493.01 611.29 495.01 605.96C496.8 601.21 496.64 596.43 494.78 591.75C493.36 588.19 490.8 585.82 487 584.87C478.08 582.64 471.16 588.8 471.13 600.08Z" fill="black"/>
<path d="M299.67 327.76C303.77 327.76 307.6 327.76 311.83 327.76C311.83 333.94 311.83 339.99 311.83 346.26C318.9 346.26 325.58 346.26 332.69 346.26C332.69 340.25 332.69 334.2 332.69 327.89C337.02 327.89 340.91 327.89 345.03 327.89C345.03 344.26 345.03 360.45 345.03 376.91C341.08 376.91 337.18 376.91 332.86 376.91C332.86 370.4 332.86 363.97 332.86 357.3C325.79 357.3 319.13 357.3 312.1 357.3C312.1 363.76 312.1 370.2 312.1 376.9C307.83 376.9 303.9 376.9 299.67 376.9C299.67 360.72 299.67 344.45 299.67 327.76Z" fill="black"/>
<path d="M518.96 574.48C526.83 574.48 534.45 574.01 541.99 574.59C552.56 575.4 557.98 583.08 555.39 592.67C553.9 598.2 549.69 600.92 544.16 602.67C548.93 609.7 553.59 616.56 558.67 624.04C553.56 624.04 549.13 624.17 544.72 623.93C543.8 623.88 542.73 622.62 542.12 621.68C538.67 616.39 535.33 611.03 531.16 605.88C531.16 611.79 531.16 617.69 531.16 623.83C526.87 623.83 523.06 623.83 518.97 623.83C518.96 607.51 518.96 591.22 518.96 574.48ZM531.36 583.76C531.36 587.93 531.36 591.98 531.36 596.13C535.32 596.62 539.37 597.11 541.55 593.24C542.52 591.52 542.66 588.36 541.71 586.71C539.52 582.91 535.41 583.44 531.36 583.76Z" fill="black"/>
<path d="M610.73 574.39C604.1 582.73 598 590.39 591.74 598.27C598.34 606.71 604.85 615.03 611.89 624.03C606.21 624.03 601.29 624.13 596.39 623.93C595.56 623.9 594.62 622.73 594 621.89C589.36 615.59 584.78 609.24 579.61 602.13C579.61 609.86 579.61 616.65 579.61 623.75C575.29 623.75 571.29 623.75 567.09 623.75C567.09 607.4 567.09 591.21 567.09 574.7C571.08 574.7 574.99 574.7 579.4 574.7C579.4 581.12 579.4 587.63 579.4 594.14C579.66 594.21 579.92 594.28 580.18 594.36C584.63 588.56 589.16 582.83 593.48 576.94C594.89 575.01 596.4 574.22 598.77 574.35C602.47 574.54 606.17 574.39 610.73 574.39Z" fill="black"/>
<path d="M464.88 356.28C464.88 360.04 464.88 363.35 464.88 367.13C470.79 367.13 476.59 367.13 482.58 367.13C482.58 370.65 482.58 373.71 482.58 376.98C472.54 376.98 462.62 376.98 452.47 376.98C452.47 360.67 452.47 344.48 452.47 327.96C462.36 327.96 472.27 327.96 482.48 327.96C482.48 330.81 482.48 333.84 482.48 337.17C476.71 337.17 471.01 337.17 464.99 337.17C464.99 340.5 464.99 343.53 464.99 347.01C470.49 347.01 476.04 347.01 481.8 347.01C481.8 350.24 481.8 353.04 481.8 356.28C476.17 356.28 470.63 356.28 464.88 356.28Z" fill="black"/>
<path d="M275.66 574.53C285.77 574.53 295.6 574.53 305.73 574.53C305.73 577.65 305.73 580.68 305.73 584.11C299.97 584.11 294.17 584.11 288.16 584.11C288.16 587.43 288.16 590.37 288.16 593.77C293.66 593.77 299.2 593.77 304.95 593.77C304.95 597.03 304.95 599.84 304.95 603.17C299.42 603.17 293.9 603.17 288.16 603.17C288.16 606.99 288.16 610.3 288.16 614.04C293.97 614.04 299.77 614.04 305.79 614.04C305.79 617.51 305.79 620.55 305.79 623.83C295.77 623.83 285.85 623.83 275.66 623.83C275.66 607.51 275.66 591.23 275.66 574.53Z" fill="black"/>
<path d="M410.64 574.5C415.52 574.5 419.75 574.5 424.25 574.5C427.6 581.4 430.96 588.32 434.37 595.34C437.89 588.37 441.35 581.52 444.84 574.61C449.03 574.61 453.07 574.61 457.73 574.61C454.95 579.95 452.39 584.87 449.82 589.8C449.13 591.13 448.49 592.49 447.7 593.75C442.25 602.35 438.52 611.39 440.16 621.89C440.25 622.46 440.06 623.08 439.99 623.87C436 623.87 432.19 623.87 427.8 623.87C427.8 619.59 427.96 615.39 427.73 611.22C427.62 609.18 427.15 607.01 426.24 605.2C421.72 596.17 416.99 587.25 412.36 578.28C411.79 577.19 411.34 576.07 410.64 574.5Z" fill="black"/>
<path d="M420.33 338C415.69 338 411.62 338 407.35 338C407.35 334.46 407.35 331.27 407.35 327.85C419.9 327.85 432.34 327.85 445.1 327.85C445.1 331.05 445.1 334.32 445.1 337.91C441.07 337.91 437.12 337.91 432.77 337.91C432.77 351.01 432.77 363.82 432.77 376.9C428.49 376.9 424.59 376.9 420.33 376.9C420.33 364.06 420.33 351.35 420.33 338Z" fill="black"/>
<path d="M493.76 327.76C497.82 327.76 501.66 327.76 505.84 327.76C505.84 340.4 505.84 352.95 505.84 366.02C511.31 366.02 516.45 366.02 521.83 366.02C521.83 369.96 521.83 373.38 521.83 376.98C512.44 376.98 503.25 376.98 493.76 376.98C493.76 360.73 493.76 344.47 493.76 327.76Z" fill="black"/>
</svg>
