<svg width="26" height="24" viewBox="0 0 26 24" fill="none" xmlns="http://www.w3.org/2000/svg">
<path d="M21 10.999H23.1C23.1 5.869 19.0334 2 13.6395 2V4C17.9046 4 21 6.943 21 10.999Z" fill="white"/>
<path d="M13.65 8.00024C15.8581 8.00024 16.8 8.89724 16.8 11.0002H18.9C18.9 7.77524 17.0362 6.00024 13.65 6.00024V8.00024ZM17.2431 13.4432C17.0413 13.2686 16.7762 13.1754 16.5036 13.1835C16.2311 13.1915 15.9726 13.3001 15.7825 13.4862L13.2699 15.9472C12.6651 15.8372 11.4492 15.4762 10.1976 14.2872C8.94595 13.0942 8.5669 11.9332 8.45455 11.3612L11.0365 8.96724C11.2322 8.78637 11.3464 8.54006 11.3548 8.28045C11.3632 8.02083 11.2653 7.76828 11.0817 7.57624L7.2019 3.51324C7.0182 3.3206 6.76288 3.20374 6.49016 3.1875C6.21745 3.17125 5.94883 3.2569 5.74135 3.42624L3.46285 5.28724C3.28132 5.46075 3.17297 5.69169 3.15835 5.93624C3.1426 6.18624 2.8423 12.1082 7.6639 16.7022C11.8702 20.7072 17.1391 21.0002 18.5902 21.0002C18.8023 21.0002 18.9325 20.9942 18.9672 20.9922C19.2239 20.9786 19.4662 20.8749 19.6476 20.7012L21.6006 18.5302C21.7785 18.3328 21.8686 18.077 21.8517 17.8173C21.8349 17.5576 21.7124 17.3143 21.5103 17.1392L17.2431 13.4432V13.4432Z" fill="white"/>
</svg>
