<svg width="16" height="22" viewBox="0 0 16 22" fill="none" xmlns="http://www.w3.org/2000/svg">
<path fill-rule="evenodd" clip-rule="evenodd" d="M13.4789 2.02002L13.4539 2.06591L13.3781 2.2036L14.2421 2.72441L14.3199 2.58274L14.3439 2.54083L14.303 2.51589L13.5238 2.04696L13.4789 2.02002ZM13.8061 4.20903L12.3375 3.32405L9.67851 4.63107C8.63334 5.12678 7.82391 6.01214 7.42365 7.09745L7.48251 7.06752C8.07145 6.7731 8.73242 6.65356 9.38717 6.72305C10.0419 6.79254 10.6631 7.04815 11.1771 7.45963C11.6929 7.87269 12.3843 7.99541 13.0119 7.78688L14.0645 7.43568L14.0545 7.30299L13.8061 4.20903ZM15.5591 8.19795C15.6044 8.06157 15.6093 7.91499 15.5731 7.77591C15.5731 7.64521 15.5691 7.51351 15.5611 7.3828L15.5461 7.19024L15.2847 3.93067L15.6389 3.29012C15.6986 3.1871 15.7539 3.08158 15.8046 2.97384C15.8574 2.85811 15.9153 2.70047 15.9243 2.50791C15.9361 2.25087 15.8682 1.99646 15.7297 1.77956C15.6408 1.64457 15.5266 1.52803 15.3935 1.43635C15.2955 1.36826 15.1946 1.30435 15.0912 1.24478L15.0752 1.23481L14.278 0.753901C14.1705 0.687519 14.0607 0.624955 13.9488 0.566328C13.7973 0.487431 13.6313 0.440243 13.4609 0.427644C13.1917 0.411727 12.9246 0.483491 12.6996 0.632178C12.5585 0.728014 12.4383 0.85158 12.3464 0.995351C12.2816 1.09313 12.2157 1.21286 12.1549 1.32261L11.8326 1.90428L9.01203 3.29112L8.84441 3.37393C7.22211 4.20704 6.07871 5.77347 5.73549 7.59731C5.72552 7.6472 5.71654 7.70008 5.70157 7.78688L5.70057 7.79387L5.67064 7.96747C5.40219 9.46015 4.67092 10.8305 3.5804 11.8846L2.77823 12.6738C2.27537 13.1686 1.8703 13.5667 1.56699 13.9109C1.25769 14.2601 1.00826 14.6024 0.858599 14.9955C0.661168 15.5148 0.591022 16.0739 0.654034 16.6259C0.717046 17.1779 0.911383 17.7068 1.22077 18.1682C1.45624 18.5174 1.77751 18.7928 2.15764 19.0602C2.52979 19.3226 3.01469 19.6139 3.61432 19.9761L4.3257 20.4051C4.92534 20.7653 5.41023 21.0577 5.81431 21.2632C6.22538 21.4727 6.61848 21.6284 7.03653 21.6673C7.58501 21.7168 8.13704 21.625 8.64003 21.4008C9.14302 21.1765 9.58022 20.8273 9.90998 20.3862C10.1634 20.0529 10.322 19.6568 10.4567 19.2059C10.5894 18.7619 10.7171 18.1972 10.8758 17.4948L11.1302 16.3753L11.1691 16.2057C11.5146 14.7323 12.3167 13.4058 13.4609 12.4153L13.4669 12.4104L13.6076 12.2856C14.7603 11.2253 15.4594 9.76101 15.5591 8.19795ZM13.8969 9.06896L13.4848 9.20665C12.939 9.38854 12.3563 9.43088 11.7899 9.3298C11.2235 9.22872 10.6915 8.98744 10.2422 8.62797C9.95139 8.39521 9.59995 8.25065 9.22952 8.2114C8.85908 8.17214 8.48515 8.23984 8.15199 8.40647L6.96868 8.99812C6.57477 10.4404 5.81528 11.7566 4.76371 12.8194L4.634 12.9491L3.84679 13.7214C3.31999 14.2402 2.95183 14.6024 2.68843 14.9007C2.42603 15.198 2.31229 15.3816 2.25642 15.5292C2.02893 16.1279 2.10676 16.8063 2.46095 17.3321C2.54775 17.4599 2.69741 17.6115 3.01868 17.836C3.34194 18.0645 3.78094 18.3289 4.41051 18.708L5.074 19.1071C5.70357 19.4872 6.14257 19.7506 6.49277 19.9292C6.84197 20.1068 7.03753 20.1647 7.17621 20.1777C7.76088 20.2325 8.34156 19.9781 8.7167 19.4832C8.81049 19.3605 8.90627 19.165 9.023 18.7769C9.13874 18.3877 9.25647 17.8729 9.4221 17.1376L9.67153 16.0401L9.71343 15.8585C10.1159 14.1468 11.0289 12.5978 12.3315 11.4166L12.4682 11.2959L12.4721 11.2919L12.5999 11.1792C13.2199 10.61 13.6691 9.87925 13.8969 9.06896Z" fill="#F8F8F8"/>
</svg>
