<svg width="1512" height="1076" viewBox="0 0 1512 1076" fill="none" xmlns="http://www.w3.org/2000/svg">
<g opacity="0.2" filter="url(#filter0_f_1023_95)">
<path d="M345.45 722.322L528.299 715.28L515.21 726.546L465.41 746.155L345.45 722.322Z" fill="url(#paint0_linear_1023_95)"/>
</g>
<g clip-path="url(#clip0_1023_95)">
<rect width="1512" height="1075.2" fill="#C8C8C8"/>
</g>
<path d="M137.502 274.05H183.397H206.493C235.314 274.05 256.731 280.07 270.747 292.112C284.96 304.153 292.066 320.241 292.066 340.376C292.066 360.511 284.96 376.698 270.747 388.937C256.731 400.978 235.314 406.999 206.493 406.999H183.397V482.8H137.502V274.05ZM183.397 314.615V366.433H206.493C221.496 366.433 232.55 364.558 239.656 360.807C246.96 356.859 250.612 350.049 250.612 340.376C250.612 330.704 246.96 323.992 239.656 320.241C232.55 316.491 221.496 314.615 206.493 314.615H183.397ZM322.733 338.896C338.92 322.709 359.055 314.615 383.138 314.615C407.22 314.615 427.355 322.709 443.542 338.896C459.729 354.885 467.822 375.415 467.822 400.484C467.822 425.554 459.729 446.183 443.542 462.369C427.355 478.556 407.22 486.65 383.138 486.65C359.055 486.65 338.92 478.556 322.733 462.369C306.546 446.183 298.453 425.554 298.453 400.484C298.453 375.415 306.546 354.885 322.733 338.896ZM413.636 366.433C405.543 357.55 395.376 353.108 383.138 353.108C370.899 353.108 360.634 357.55 352.343 366.433C344.25 375.316 340.203 386.666 340.203 400.484C340.203 414.302 344.25 425.752 352.343 434.832C360.634 443.715 370.899 448.157 383.138 448.157C395.376 448.157 405.543 443.715 413.636 434.832C421.729 425.752 425.776 414.302 425.776 400.484C425.776 386.666 421.729 375.316 413.636 366.433ZM575.968 314.615C599.656 314.615 618.903 322.61 633.708 338.6C648.513 354.392 655.915 375.02 655.915 400.484C655.915 425.949 648.513 446.676 633.708 462.665C618.903 478.655 599.656 486.65 575.968 486.65C556.426 486.65 540.634 480.629 528.592 468.587V542.02H485.362V318.169H528.592V332.381C540.436 320.537 556.228 314.615 575.968 314.615ZM601.729 366.433C593.635 357.55 583.469 353.108 571.231 353.108C558.992 353.108 548.826 357.55 540.732 366.433C532.639 375.316 528.592 386.666 528.592 400.484C528.592 414.302 532.639 425.653 540.732 434.536C548.826 443.419 558.992 447.86 571.231 447.86C583.469 447.86 593.635 443.419 601.729 434.536C609.822 425.653 613.869 414.302 613.869 400.484C613.869 386.666 609.822 375.316 601.729 366.433ZM673.316 274.05H719.211V378.573C719.211 397.326 723.159 412.427 731.055 423.876C738.951 435.128 750.104 440.754 764.514 440.754C778.925 440.754 790.176 435.128 798.27 423.876C806.363 412.427 810.41 397.326 810.41 378.573V274.05H856.305C856.305 274.05 856.305 308.891 856.305 378.573C856.305 412.526 847.719 439.076 830.545 458.224C813.371 477.174 791.361 486.65 764.514 486.65C737.668 486.65 715.757 477.174 698.78 458.224C681.804 439.274 673.316 412.723 673.316 378.573V274.05ZM969.226 314.615C992.914 314.615 1012.16 322.61 1026.97 338.6C1041.77 354.392 1049.17 375.02 1049.17 400.484C1049.17 425.949 1041.77 446.676 1026.97 462.665C1012.16 478.655 992.914 486.65 969.226 486.65C949.683 486.65 933.891 480.629 921.85 468.587V542.02H878.619V318.169H921.85V332.381C933.694 320.537 949.486 314.615 969.226 314.615ZM994.987 366.433C986.893 357.55 976.727 353.108 964.488 353.108C952.25 353.108 942.083 357.55 933.99 366.433C925.897 375.316 921.85 386.666 921.85 400.484C921.85 414.302 925.897 425.653 933.99 434.536C942.083 443.419 952.25 447.86 964.488 447.86C976.727 447.86 986.893 443.419 994.987 434.536C1003.08 425.653 1007.13 414.302 1007.13 400.484C1007.13 386.666 1003.08 375.316 994.987 366.433ZM137.502 537.05C137.502 537.05 157.933 537.05 198.795 537.05C250.316 537.05 276.077 556.987 276.077 596.862C276.077 606.337 273.51 614.727 268.378 622.03C263.246 629.137 257.521 634.072 251.204 636.835C260.087 639.402 267.588 644.633 273.708 652.529C280.025 660.227 283.183 669.703 283.183 680.954C283.183 701.484 276.669 717.473 263.64 728.923C250.612 740.174 228.997 745.8 198.795 745.8H137.502V537.05ZM183.397 577.615V618.477H198.795C211.626 618.477 220.706 617.095 226.036 614.332C231.563 611.568 234.327 605.745 234.327 596.862C234.327 588.769 231.662 583.537 226.332 581.169C221.002 578.8 211.823 577.615 198.795 577.615H183.397ZM183.397 659.339V705.235H198.795C213.205 705.235 223.963 703.458 231.069 699.905C238.176 696.352 241.729 690.035 241.729 680.954C241.729 672.269 237.978 666.544 230.477 663.781C223.173 660.82 212.613 659.339 198.795 659.339H183.397ZM382.305 577.615C398.294 577.615 411.717 582.945 422.574 593.605C433.629 604.067 439.156 620.55 439.156 643.054V643.942V745.8H395.925V724.777C383.884 741.359 366.513 749.65 343.812 749.65C330.389 749.65 318.347 745.603 307.688 737.509C297.225 729.416 291.994 718.164 291.994 703.754C291.994 684.606 298.607 670.097 311.833 660.227C325.059 650.16 341.048 645.126 359.801 645.126H396.222V643.35C396.222 625.978 388.72 617.293 373.718 617.293C366.019 617.293 358.321 618.379 350.622 620.55C343.121 622.721 337.495 624.893 333.744 627.064L328.119 630.321L311.833 598.639C312.623 598.046 313.708 597.355 315.09 596.566C316.472 595.579 319.433 593.901 323.973 591.532C328.711 588.966 333.646 586.795 338.778 585.018C343.911 583.044 350.425 581.366 358.321 579.984C366.217 578.405 374.211 577.615 382.305 577.615ZM361.578 673.848C344.207 673.848 335.521 681.547 335.521 696.944C335.521 703.261 337.594 708.294 341.739 712.045C346.082 715.598 352.201 717.375 360.097 717.375C370.362 717.375 378.85 712.933 385.562 704.05C392.471 694.97 395.925 686.383 395.925 678.289V673.848H361.578ZM622.137 577.319V611.075C622.137 611.075 620.755 611.075 617.991 611.075C605.358 611.075 599.041 613.74 599.041 619.069C599.633 621.833 599.929 626.275 599.929 632.394C599.929 650.16 594.106 663.682 582.459 672.96C570.813 682.237 554.527 686.876 533.603 686.876C522.943 686.876 513.961 685.791 506.658 683.619C504.881 686.383 503.993 689.541 503.993 693.094C503.993 696.055 505.078 698.326 507.25 699.905C509.421 701.287 511.691 702.175 514.06 702.57C516.626 702.767 520.179 702.866 524.72 702.866H533.603C545.052 702.866 555.514 703.754 564.989 705.531C574.464 707.307 583.446 710.17 591.934 714.118C600.423 718.066 607.035 723.889 611.773 731.587C616.708 739.286 619.176 748.564 619.176 759.421C619.176 796.137 590.651 814.496 533.603 814.496C476.554 814.496 448.03 796.137 448.03 759.421C448.03 742.642 457.9 730.304 477.64 722.408C471.915 716.092 469.053 708.689 469.053 700.201C469.053 688.752 475.567 680.56 488.595 675.625C474.383 665.952 467.276 651.542 467.276 632.394C467.276 614.628 473.1 601.106 484.746 591.828C496.393 582.353 512.678 577.615 533.603 577.615C555.119 577.615 571.701 582.55 583.347 592.42C590.849 582.353 603.778 577.319 622.137 577.319ZM550.776 616.108C546.434 612.555 540.709 610.779 533.603 610.779C526.496 610.779 520.772 612.555 516.429 616.108C512.086 619.662 509.915 625.09 509.915 632.394C509.915 646.607 517.811 653.713 533.603 653.713C540.709 653.713 546.434 652.035 550.776 648.679C555.317 645.126 557.587 639.698 557.587 632.394C557.587 625.09 555.317 619.662 550.776 616.108ZM541.301 741.359H540.709H533.603H532.714C527.385 741.359 523.239 741.457 520.278 741.655C517.515 741.655 513.863 741.951 509.322 742.543C504.98 743.135 501.624 744.024 499.255 745.208C497.084 746.392 495.11 748.169 493.333 750.538C491.556 752.907 490.668 755.868 490.668 759.421C490.668 763.961 491.853 767.712 494.221 770.673C496.59 773.634 500.045 775.805 504.585 777.187C509.322 778.569 513.764 779.457 517.909 779.852C522.252 780.247 527.483 780.444 533.603 780.444C539.722 780.444 544.854 780.247 549 779.852C553.343 779.457 557.784 778.569 562.324 777.187C566.865 775.805 570.319 773.634 572.688 770.673C575.057 767.712 576.241 763.961 576.241 759.421C576.241 751.92 573.181 747.083 567.062 744.912C561.14 742.543 552.553 741.359 541.301 741.359ZM700.649 577.615C722.166 577.615 740.228 584.919 754.836 599.527C769.641 613.937 777.043 634.664 777.043 661.708C777.043 667.63 776.846 672.17 776.451 675.328H658.603C660.577 686.185 665.315 694.871 672.816 701.385C680.515 707.702 689.595 710.86 700.057 710.86C715.652 710.86 727.496 704.248 735.589 691.022L772.602 709.676C765.1 722.112 755.033 731.884 742.399 738.99C729.766 746.096 715.652 749.65 700.057 749.65C675.974 749.65 655.84 741.556 639.653 725.369C623.466 709.183 615.373 688.554 615.373 663.484C615.373 638.415 623.565 617.885 639.949 601.896C656.333 585.709 676.567 577.615 700.649 577.615ZM700.057 616.108C691.569 616.108 683.87 618.477 676.961 623.215C670.052 627.755 664.92 634.072 661.564 642.165H733.813C733.813 636.046 731.148 630.223 725.818 624.695C720.685 618.971 712.099 616.108 700.057 616.108ZM794.474 522.245H837.704V745.8H794.474V522.245ZM988.338 697.24C988.338 714.611 982.416 727.738 970.572 736.621C958.926 745.307 942.542 749.65 921.42 749.65C909.576 749.65 898.028 748.07 886.776 744.912C875.722 741.754 867.628 738.595 862.496 735.437L854.797 730.699L872.563 697.536C874.142 698.523 876.413 699.905 879.374 701.681C882.335 703.261 888.059 705.432 896.547 708.196C905.036 710.762 913.326 712.045 921.42 712.045C931.29 712.045 937.903 710.762 941.258 708.196C944.812 705.629 946.588 702.175 946.588 697.832C946.588 693.489 943.529 689.837 937.409 686.876C931.487 683.718 924.183 680.856 915.498 678.289C907.01 675.723 898.423 672.762 889.737 669.406C881.249 666.051 873.945 661.017 867.826 654.305C861.904 647.594 858.943 639.402 858.943 629.729C858.943 613.147 865.161 600.316 877.597 591.236C890.033 582.156 904.937 577.615 922.308 577.615C932.968 577.615 943.232 579.293 953.102 582.649C963.17 585.808 970.474 589.065 975.014 592.42L981.824 597.158L964.946 629.137C963.565 628.15 961.689 626.965 959.321 625.584C956.952 624.004 952.017 621.932 944.516 619.366C937.014 616.799 929.612 615.516 922.308 615.516C908.095 615.516 900.989 619.662 900.989 627.952C900.989 631.308 903.95 634.368 909.872 637.132C915.991 639.698 923.295 642.264 931.783 644.83C940.469 647.396 949.056 650.555 957.544 654.305C966.032 657.859 973.237 663.287 979.159 670.591C985.279 677.895 988.338 686.778 988.338 697.24Z" fill="black"/>
<defs>
<filter id="filter0_f_1023_95" x="329.7" y="699.53" width="214.349" height="62.375" filterUnits="userSpaceOnUse" color-interpolation-filters="sRGB">
<feFlood flood-opacity="0" result="BackgroundImageFix"/>
<feBlend mode="normal" in="SourceGraphic" in2="BackgroundImageFix" result="shape"/>
<feGaussianBlur stdDeviation="7.875" result="effect1_foregroundBlur_1023_95"/>
</filter>
<linearGradient id="paint0_linear_1023_95" x1="522.15" y1="716.516" x2="363.611" y2="744.902" gradientUnits="userSpaceOnUse">
<stop/>
<stop offset="1" stop-opacity="0"/>
</linearGradient>
<clipPath id="clip0_1023_95">
<rect width="1512" height="1075.2" fill="white"/>
</clipPath>
</defs>
</svg>
