<svg width="42" height="40" viewBox="0 0 42 40" fill="none" xmlns="http://www.w3.org/2000/svg">
<path d="M19.4858 27.2894L19.1356 35.8825L19.0892 36.397L9.28129 35.7199C8.69141 35.6592 8.13964 35.4 7.71634 34.9847C7.2546 34.5645 6.88503 34.0531 6.631 33.4828L6.61939 33.4546C6.45172 33.0516 6.33897 32.628 6.28416 32.195L6.28084 32.1701C6.23001 31.6515 6.26364 31.128 6.38041 30.6201L6.37378 30.6516C6.49105 30.0752 6.58232 29.6471 6.6476 29.3671C6.81687 28.7564 6.98781 28.2602 7.18529 27.7757L7.15044 27.8736C7.41486 27.1578 7.56256 26.7467 7.59354 26.6405C8.80943 26.8253 12.7724 27.0421 19.4825 27.2911L19.4858 27.2894ZM10.4463 13.6065L14.6499 22.4568L11.218 20.3094C10.3074 21.3417 9.46264 22.4303 8.68883 23.5687L8.61581 23.6832C8.03165 24.518 7.46741 25.4755 6.97951 26.4746L6.92308 26.6024C6.54913 27.4244 6.24212 28.1601 6.00204 28.8095C5.81554 29.2683 5.67382 29.7441 5.57886 30.2301L5.57056 30.2816L5.47763 30.7711L1.04168 22.4353C0.781968 22.0485 0.636455 21.5965 0.62182 21.1309V21.1259C0.591158 20.7483 0.639771 20.3684 0.76454 20.0107L0.759562 20.0306L0.94543 19.6107C1.49308 18.6305 2.38038 17.1695 3.60733 15.2279L0.343018 13.2116L10.4463 13.6065ZM39.1895 25.6797L34.8066 34.062C34.632 34.4947 34.3393 34.8696 33.9619 35.144L33.9553 35.149C33.6621 35.3801 33.3206 35.5423 32.9562 35.6236L32.9397 35.6269L32.5198 35.7199C31.4145 35.8283 29.7102 35.9196 27.4068 35.9937L27.5926 39.8289L22.2224 31.259L27.1528 22.8053L27.3155 26.8447C29.5504 27.0894 31.8032 27.1261 34.0449 26.9542L33.9221 26.9625C35.3133 26.8738 36.6869 26.6032 38.0079 26.1576L37.895 26.1908L39.1895 25.6797ZM20.8649 4.10235C20.1347 5.08258 18.0719 8.46859 14.6764 14.2604L7.27988 9.89413L6.83679 9.62031L12.0909 1.30769C12.4228 0.813145 12.9041 0.443068 13.47 0.258859L13.4882 0.25388C14.0914 0.0340898 14.7368 -0.0448147 15.3751 0.0232046L15.3569 0.0215451C15.7734 0.0580549 16.1584 0.155968 16.5152 0.305326L16.4903 0.295369C16.867 0.448046 17.1857 0.614 17.4877 0.803187L17.4611 0.788252C17.8229 1.03054 18.1399 1.28445 18.432 1.5616L18.4287 1.55828C18.8026 1.90125 19.0831 2.16954 19.27 2.36315C19.457 2.55677 19.7375 2.86378 20.1114 3.2842C20.4887 3.70461 20.7398 3.97733 20.8649 4.10235ZM36.1592 11.2699L41.1096 19.7468C41.3913 20.301 41.4929 20.9294 41.4 21.5441L41.4016 21.5275C41.3123 22.1496 41.0899 22.7451 40.7494 23.2733L40.7594 23.2567C40.5465 23.5782 40.2889 23.8677 39.9943 24.1164L39.9877 24.1214C39.7181 24.3545 39.4313 24.567 39.1297 24.757L39.0999 24.7736C38.7779 24.9644 38.4028 25.137 38.0112 25.2731L37.9664 25.2863C37.4918 25.4578 37.1267 25.5823 36.8711 25.6597C36.6155 25.7372 36.2145 25.8462 35.6679 25.9867L34.5942 26.2605C34.0643 25.1398 32.0015 21.746 28.4058 16.0792L35.7144 11.5255L36.1592 11.2699ZM32.8202 5.99256L36.1359 4.05422L30.9997 12.7651L21.2134 12.2988L24.7399 10.2908C24.2175 8.89982 23.6026 7.54538 22.8995 6.23651L22.9891 6.41906C22.4602 5.39106 21.855 4.40418 21.1785 3.46675L21.225 3.53479C20.6884 2.81012 20.1861 2.18724 19.7181 1.66615C19.387 1.27912 19.0252 0.91949 18.6361 0.590767L18.6228 0.57915L18.2262 0.275454L27.6773 0.298688C28.1484 0.248003 28.6242 0.335656 29.0464 0.550938L29.0331 0.544299C29.3932 0.706934 29.6969 0.932631 29.9458 1.20977L29.9475 1.21309L30.2047 1.56326C30.8121 2.50809 31.6839 3.98452 32.8202 5.99256Z" fill="#002445"/>
</svg>
