<svg width="32" height="33" viewBox="0 0 32 33" fill="none" xmlns="http://www.w3.org/2000/svg">
<rect y="0.192383" width="32" height="32" rx="16" fill="#002445"/>
<path d="M22.4806 12.1994C22.3485 12.3132 22.2115 12.4215 22.0698 12.524L21.8513 12.682L21.8633 12.9513C21.8692 13.0844 21.8722 13.2207 21.8722 13.3541C21.8722 17.4757 18.7361 22.1929 13.0334 22.1929H13.0332C11.9982 22.1934 10.9766 22.0117 10.0134 21.661C11.1596 21.4608 12.2455 20.9801 13.1704 20.2536L14.2716 19.3886L12.8716 19.3605C12.2909 19.3488 11.7283 19.1561 11.2624 18.8093C11.0091 18.6208 10.7912 18.3918 10.6165 18.1332C10.8838 18.119 11.1496 18.0762 11.4095 18.0051L11.3762 17.0327C10.7461 16.9059 10.1795 16.5648 9.77251 16.0674C9.5245 15.7643 9.34512 15.4146 9.24291 15.0422C9.52657 15.1192 9.81922 15.1632 10.1151 15.1726L11.8602 15.228L10.4089 14.2573C9.82032 13.8636 9.40371 13.2605 9.24377 12.5707C9.13952 12.1211 9.1494 11.6566 9.26728 11.218C10.0301 12.0111 10.9223 12.6719 11.9073 13.171C13.1351 13.793 14.48 14.1501 15.8546 14.2191L16.516 14.2523L16.3668 13.6071C16.2289 13.0104 16.2913 12.3848 16.5445 11.8271C16.7977 11.2694 17.2276 10.8107 17.7677 10.5218C18.3077 10.233 18.9279 10.13 19.5323 10.229C20.1368 10.328 20.6918 10.6233 21.1115 11.0693L21.3012 11.2708L21.5726 11.2171C21.7924 11.1736 22.0096 11.1199 22.2236 11.0561C22.1098 11.1519 21.988 11.2391 21.8589 11.3165L22.1736 12.242C22.2764 12.2301 22.3787 12.2159 22.4806 12.1994ZM22.4806 12.1994C22.6456 12.0573 22.8029 11.9066 22.9518 11.748C22.7739 11.9071 22.5803 12.05 22.373 12.1742L22.1159 11.7454L22.0582 11.2487C22.3435 11.2156 22.6257 11.1619 22.9025 11.0884M22.8579 10.2909C22.4153 10.4862 21.9518 10.6324 21.4756 10.7266L22.8579 10.2909Z" fill="white" stroke="white"/>
</svg>
