<?xml version="1.0" encoding="UTF-8"?>
<svg id="Layer_1" data-name="Layer 1" xmlns="http://www.w3.org/2000/svg" viewBox="0 0 1193.8 261.03">
  <defs>
    <style>
      .cls-1 {
        fill: #002659;
        stroke-width: 0px;
      }
    </style>
  </defs>
  <g>
    <path class="cls-1" d="M226.85,187.11l8.39-7.88c.33.08-9.6,10.84-9.26,10.92,2.11-3.84,5.89-7.73,7.77-11.68,4.45-9.35,7.57-19.13,9.56-29.32.73-3.74-1.58-5.49-4.75-5.41-8.52.23-16.42,2.6-23.99,6.31-10.34,5.06-19.46,11.95-28.46,19.01-11.01,8.65-22.52,16.41-36.31,19.99-2.99.78-6.03,1.35-9.06,1.94-2.96.58-5.74.3-8.37-1.45-4.71-3.14-9.52-6.12-14.29-9.17-.36-.23-.72-.44-1.09-.65l.17-.72c3.81-.3,7.63-.47,11.42-.94,15.46-1.92,29.2-8.13,41.8-17.07,9.6-6.81,18.94-13.99,28.73-20.5,10.07-6.7,21.22-10.88,33.41-11.91,2.3-.19,4.6-.49,6.9-.6,3.27-.15,4.96-1.5,4.55-4.82-.9-7.31-1.49-14.78-3.51-21.82-11.26-39.26-37.12-64.95-74.95-79.13-4.42-1.66-9.04-2.76-13.45-4.44-1.11-.42-7.75-5.35-8.49-6.24-1.58-1.94-1.28-5.41-.22-7.6,1.07-2.22,2.8-3.8,5.39-3.81,1.7,0,3.42.3,5.09.66,27.65,5.98,52,18.38,71.81,38.67,19.38,19.86,31.18,43.84,35.56,71.29,4.92,30.79-1.33,59.58-17.03,86.2-18.42,31.25-45.78,51.14-80.88,59.74-47.94,11.74-89.78-.6-125.39-34.24-13.17-12.45-22.22-27.85-28.77-44.76C2.63,160.94-.8,143.66.16,125.74c1.9-35.43,15.51-65.66,41.17-90.34C60.6,16.87,83.63,5.73,109.66.45c3.3-.67,6.51-.99,8.96,2.1,1.91,2.41,2.05,5.08.24,7.59-.31.43-.59.85-.94,1.25-.41.45-.74.97-1.05,1.5-2.35,3.98-6.54,4.74-10.72,5.94-35.05,10.09-61.27,31.04-77.24,64.08-6.62,13.7-9.87,28.35-10.22,43.59-.1,4.3-.09,8.6-.06,12.9.02,3.26,1.62,5.04,4.85,5.07,21.13.19,39.23,8.59,55.7,20.97,8.92,6.7,17.42,13.97,26.05,21.05,10.43,8.55,21.44,16.12,34.41,20.32,20.18,6.55,40.13,5.6,59.76-2.28,9.32-3.74,17.89-8.77,25.26-15.7.55-.51,1.18-.93,2.19-1.7ZM192.57,224.14c-1.15-.32-1.48-.51-1.78-.47-1.44.19-2.89.42-4.32.69-14.53,2.74-29.03,2.86-43.46-.65-17.28-4.2-32.38-12.67-46.09-23.79-9.2-7.46-18.16-15.25-27.6-22.4-11.73-8.88-24.74-15.16-39.56-16.98-6.38-.78-7.66.88-5.63,7.07,5.02,15.28,12.97,28.95,24.41,40.16,30.62,30.01,66.88,41.65,109.24,32.16,11.06-2.48,21.49-6.58,31.27-12.3,1.24-.73,2.13-2.07,3.53-3.49Z"/>
    <path class="cls-1" d="M96.54,80.03c.08-5.99,3-13.93,7.77-21.31,5.82-9.01,11.73-17.99,17.22-27.2,2.8-4.7,4.71-9.92,7.19-14.83.5-.98,1.7-2.07,2.69-2.18.71-.08,1.93,1.25,2.34,2.2,6.22,14.44,14.65,27.59,23.49,40.51,4.51,6.59,7.87,13.69,8.73,21.77,2.13,20.07-12.48,37.13-30.35,39.09-23.19,2.53-39.16-15.9-39.06-38.04Z"/>
    <path class="cls-1" d="M166.49,196.99c.38-.28.61-.51.89-.64,12.16-5.71,22.59-13.99,33.14-22.12,7.51-5.78,15.42-10.92,24.34-14.31,1.08-.41,2.26-.56,3.55-.87-4.99,19.18-33.42,40.51-61.92,37.94Z"/>
    <path class="cls-1" d="M42.17,176.84c4.19,2.06,8.47,3.96,12.57,6.2,9.8,5.37,17.95,12.96,26.46,20.06,9.04,7.55,18.05,15.15,28.42,20.88,3.51,1.94,7.16,3.64,10.8,5.48-25.78,1.74-72.65-29.12-78.75-51.8.17-.27.34-.55.52-.82Z"/>
  </g>
  <g>
    <path class="cls-1" d="M376.21,93.97v7.4h-19v62.3h-9.1v-62.3h-19.1v-7.4h47.2Z"/>
    <path class="cls-1" d="M425.81,110.52c3.33,1.77,5.95,4.42,7.85,7.95,1.9,3.53,2.85,7.83,2.85,12.9v32.3h-9v-31c0-5.47-1.37-9.65-4.1-12.55-2.73-2.9-6.47-4.35-11.2-4.35s-8.62,1.5-11.45,4.5c-2.83,3-4.25,7.37-4.25,13.1v30.3h-9.1v-74h9.1v27c1.8-2.8,4.28-4.97,7.45-6.5,3.17-1.53,6.72-2.3,10.65-2.3,4.13,0,7.87.88,11.2,2.65Z"/>
    <path class="cls-1" d="M501.11,139.67h-43.8c.33,5.4,2.18,9.62,5.55,12.65,3.37,3.03,7.45,4.55,12.25,4.55,3.93,0,7.22-.92,9.85-2.75,2.63-1.83,4.48-4.28,5.55-7.35h9.8c-1.47,5.27-4.4,9.55-8.8,12.85-4.4,3.3-9.87,4.95-16.4,4.95-5.2,0-9.85-1.17-13.95-3.5-4.1-2.33-7.32-5.65-9.65-9.95-2.33-4.3-3.5-9.28-3.5-14.95s1.13-10.63,3.4-14.9c2.27-4.27,5.45-7.55,9.55-9.85s8.82-3.45,14.15-3.45,9.8,1.13,13.8,3.4c4,2.27,7.08,5.38,9.25,9.35,2.17,3.97,3.25,8.45,3.25,13.45,0,1.73-.1,3.57-.3,5.5ZM489.71,123.32c-1.53-2.5-3.62-4.4-6.25-5.7-2.63-1.3-5.55-1.95-8.75-1.95-4.6,0-8.52,1.47-11.75,4.4-3.23,2.93-5.08,7-5.55,12.2h34.6c0-3.47-.77-6.45-2.3-8.95Z"/>
    <path class="cls-1" d="M627.71,93.97l-20.2,69.7h-10.2l-16.2-56.1-16.8,56.1-10.1.1-19.5-69.8h9.7l15.2,59.1,16.8-59.1h10.2l16,58.9,15.3-58.9h9.8Z"/>
    <path class="cls-1" d="M637.71,121.32c2.27-4.23,5.38-7.52,9.35-9.85,3.97-2.33,8.38-3.5,13.25-3.5s8.97,1.03,12.5,3.1c3.53,2.07,6.17,4.67,7.9,7.8v-10h9.2v54.8h-9.2v-10.2c-1.8,3.2-4.48,5.85-8.05,7.95-3.57,2.1-7.72,3.15-12.45,3.15s-9.27-1.2-13.2-3.6c-3.93-2.4-7.03-5.77-9.3-10.1-2.27-4.33-3.4-9.27-3.4-14.8s1.13-10.52,3.4-14.75ZM678.21,125.37c-1.67-3.07-3.92-5.42-6.75-7.05-2.83-1.63-5.95-2.45-9.35-2.45s-6.5.8-9.3,2.4-5.03,3.93-6.7,7c-1.67,3.07-2.5,6.67-2.5,10.8s.83,7.85,2.5,10.95c1.67,3.1,3.9,5.47,6.7,7.1,2.8,1.63,5.9,2.45,9.3,2.45s6.52-.82,9.35-2.45c2.83-1.63,5.08-4,6.75-7.1,1.67-3.1,2.5-6.71,2.5-10.85s-.83-7.73-2.5-10.8Z"/>
    <path class="cls-1" d="M716.41,116.37v32.3c0,2.67.57,4.55,1.7,5.65,1.13,1.1,3.1,1.65,5.9,1.65h6.7v7.7h-8.2c-5.07,0-8.87-1.17-11.4-3.5-2.53-2.33-3.8-6.17-3.8-11.5v-32.3h-7.1v-7.5h7.1v-13.8h9.1v13.8h14.3v7.5h-14.3Z"/>
    <path class="cls-1" d="M791.41,139.67h-43.8c.33,5.4,2.18,9.62,5.55,12.65,3.37,3.03,7.45,4.55,12.25,4.55,3.93,0,7.21-.92,9.85-2.75,2.63-1.83,4.48-4.28,5.55-7.35h9.8c-1.47,5.27-4.4,9.55-8.8,12.85-4.4,3.3-9.87,4.95-16.4,4.95-5.2,0-9.85-1.17-13.95-3.5-4.1-2.33-7.32-5.65-9.65-9.95-2.33-4.3-3.5-9.28-3.5-14.95s1.13-10.63,3.4-14.9c2.27-4.27,5.45-7.55,9.55-9.85s8.82-3.45,14.15-3.45,9.8,1.13,13.8,3.4c4,2.27,7.08,5.38,9.25,9.35,2.17,3.97,3.25,8.45,3.25,13.45,0,1.73-.1,3.57-.3,5.5ZM780.01,123.32c-1.53-2.5-3.62-4.4-6.25-5.7-2.63-1.3-5.55-1.95-8.75-1.95-4.6,0-8.52,1.47-11.75,4.4-3.23,2.93-5.08,7-5.55,12.2h34.6c0-3.47-.77-6.45-2.3-8.95Z"/>
    <path class="cls-1" d="M819.66,110.47c2.96-1.73,6.58-2.6,10.85-2.6v9.4h-2.4c-10.2,0-15.3,5.53-15.3,16.6v29.8h-9.1v-54.8h9.1v8.9c1.6-3.13,3.88-5.57,6.85-7.3Z"/>
    <path class="cls-1" d="M908.36,128.82c-3.97,3.83-10.02,5.75-18.15,5.75h-13.4v29.1h-9.1v-69.7h22.5c7.87,0,13.85,1.9,17.95,5.7,4.1,3.8,6.15,8.7,6.15,14.7s-1.98,10.62-5.95,14.45ZM901.41,123.77c2.4-2.2,3.6-5.33,3.6-9.4,0-8.6-4.93-12.9-14.8-12.9h-13.4v25.6h13.4c5.07,0,8.8-1.1,11.2-3.3Z"/>
    <path class="cls-1" d="M975.31,139.67h-43.8c.33,5.4,2.18,9.62,5.55,12.65,3.37,3.03,7.45,4.55,12.25,4.55,3.93,0,7.21-.92,9.85-2.75,2.63-1.83,4.48-4.28,5.55-7.35h9.8c-1.47,5.27-4.4,9.55-8.8,12.85-4.4,3.3-9.87,4.95-16.4,4.95-5.2,0-9.85-1.17-13.95-3.5-4.1-2.33-7.32-5.65-9.65-9.95-2.33-4.3-3.5-9.28-3.5-14.95s1.13-10.63,3.4-14.9c2.27-4.27,5.45-7.55,9.55-9.85s8.82-3.45,14.15-3.45,9.8,1.13,13.8,3.4c4,2.27,7.08,5.38,9.25,9.35,2.17,3.97,3.25,8.45,3.25,13.45,0,1.73-.1,3.57-.3,5.5ZM963.9,123.32c-1.53-2.5-3.62-4.4-6.25-5.7-2.63-1.3-5.55-1.95-8.75-1.95-4.6,0-8.52,1.47-11.75,4.4-3.23,2.93-5.08,7-5.55,12.2h34.6c0-3.47-.77-6.45-2.3-8.95Z"/>
    <path class="cls-1" d="M997.55,161.07c-4.17-2.33-7.43-5.65-9.8-9.95-2.37-4.3-3.55-9.28-3.55-14.95s1.22-10.55,3.65-14.85c2.43-4.3,5.75-7.6,9.95-9.9,4.2-2.3,8.9-3.45,14.1-3.45s9.9,1.15,14.1,3.45c4.2,2.3,7.52,5.58,9.95,9.85,2.43,4.27,3.65,9.23,3.65,14.9s-1.25,10.65-3.75,14.95-5.88,7.62-10.15,9.95c-4.27,2.33-9,3.5-14.2,3.5s-9.78-1.17-13.95-3.5ZM1020.7,154.27c2.87-1.53,5.18-3.83,6.95-6.9,1.77-3.07,2.65-6.8,2.65-11.2s-.87-8.13-2.6-11.2c-1.73-3.07-4-5.35-6.8-6.85s-5.83-2.25-9.1-2.25-6.38.75-9.15,2.25c-2.77,1.5-4.98,3.78-6.65,6.85-1.67,3.07-2.5,6.8-2.5,11.2s.82,8.23,2.45,11.3c1.63,3.07,3.82,5.35,6.55,6.85,2.73,1.5,5.73,2.25,9,2.25s6.33-.77,9.2-2.3Z"/>
    <path class="cls-1" d="M1068.75,111.12c3.57-2.1,7.72-3.15,12.45-3.15s9.28,1.17,13.25,3.5c3.97,2.33,7.08,5.62,9.35,9.85,2.27,4.23,3.4,9.15,3.4,14.75s-1.13,10.47-3.4,14.8c-2.27,4.33-5.38,7.7-9.35,10.1-3.97,2.4-8.38,3.6-13.25,3.6s-8.78-1.05-12.35-3.15c-3.57-2.1-6.28-4.72-8.15-7.85v36.1h-9.1v-80.8h9.1v10.1c1.8-3.13,4.48-5.75,8.05-7.85ZM1095.4,125.27c-1.67-3.07-3.92-5.4-6.75-7-2.83-1.6-5.95-2.4-9.35-2.4s-6.42.82-9.25,2.45c-2.83,1.63-5.1,4-6.8,7.1-1.7,3.1-2.55,6.68-2.55,10.75s.85,7.75,2.55,10.85c1.7,3.1,3.97,5.47,6.8,7.1,2.83,1.63,5.92,2.45,9.25,2.45s6.52-.82,9.35-2.45c2.83-1.63,5.08-4,6.75-7.1,1.67-3.1,2.5-6.75,2.5-10.95s-.83-7.73-2.5-10.8Z"/>
    <path class="cls-1" d="M1128.3,89.67v74h-9.1v-74h9.1Z"/>
    <path class="cls-1" d="M1193.5,139.67h-43.8c.33,5.4,2.18,9.62,5.55,12.65,3.37,3.03,7.45,4.55,12.25,4.55,3.93,0,7.21-.92,9.85-2.75,2.63-1.83,4.48-4.28,5.55-7.35h9.8c-1.47,5.27-4.4,9.55-8.8,12.85-4.4,3.3-9.87,4.95-16.4,4.95-5.2,0-9.85-1.17-13.95-3.5-4.1-2.33-7.32-5.65-9.65-9.95-2.33-4.3-3.5-9.28-3.5-14.95s1.13-10.63,3.4-14.9c2.27-4.27,5.45-7.55,9.55-9.85s8.82-3.45,14.15-3.45,9.8,1.13,13.8,3.4c4,2.27,7.08,5.38,9.25,9.35,2.17,3.97,3.25,8.45,3.25,13.45,0,1.73-.1,3.57-.3,5.5ZM1182.1,123.32c-1.53-2.5-3.62-4.4-6.25-5.7-2.63-1.3-5.55-1.95-8.75-1.95-4.6,0-8.52,1.47-11.75,4.4-3.23,2.93-5.08,7-5.55,12.2h34.6c0-3.47-.77-6.45-2.3-8.95Z"/>
  </g>
</svg>