<svg width="109" height="110" viewBox="0 0 109 110" fill="none" xmlns="http://www.w3.org/2000/svg">
<path d="M94.0812 78.4312L97.561 75.1648C97.6996 75.1989 93.5814 79.66 93.7177 79.6941C94.5922 78.1018 96.1618 76.4891 96.9432 74.8514C98.7876 70.9763 100.082 66.9172 100.907 62.6923C101.209 61.1432 100.25 60.414 98.9352 60.4504C95.4031 60.5458 92.1255 61.5293 88.984 63.0671C84.6978 65.1682 80.9136 68.0211 77.1816 70.9536C72.6137 74.5402 67.8414 77.7588 62.1219 79.2466C60.8839 79.5692 59.621 79.8054 58.3649 80.0507C57.1383 80.2915 55.9822 80.1779 54.8919 79.4488C52.9407 78.1472 50.9441 76.9093 48.9679 75.6464C48.8203 75.5532 48.6681 75.4647 48.5182 75.3783L48.5863 75.0808C50.165 74.9536 51.7527 74.8854 53.3223 74.6901C59.7346 73.8951 65.4337 71.317 70.658 67.61C74.6376 64.7866 78.5127 61.8087 82.574 59.108C86.7512 56.3277 91.3759 54.5946 96.4298 54.1676C97.3839 54.0881 98.3356 53.9631 99.2919 53.9177C100.648 53.8541 101.348 53.2976 101.179 51.9211C100.805 48.8887 100.559 45.7905 99.7234 42.8739C95.0533 26.5922 84.3298 15.9391 68.6387 10.0538C66.8079 9.36777 64.8885 8.90894 63.0623 8.21161C62.6012 8.03443 59.8482 5.99467 59.5438 5.62216C58.8873 4.81806 59.0145 3.38024 59.4529 2.46939C59.8959 1.54945 60.6136 0.893 61.6858 0.890728C62.3899 0.890728 63.1031 1.01339 63.7959 1.1633C75.2645 3.64372 85.3633 8.78628 93.5769 17.1997C101.616 25.436 106.508 35.3804 108.325 46.7649C110.365 59.5327 107.773 71.4737 101.263 82.5152C93.6223 95.4738 82.2765 103.726 67.721 107.29C47.8367 112.16 30.4851 107.042 15.7185 93.0888C10.2556 87.9281 6.50092 81.5385 3.78654 74.5243C1.0926 67.5782 -0.331593 60.4072 0.0659101 52.9773C0.854103 38.2856 6.49638 25.7472 17.1404 15.512C25.1336 7.82773 34.6828 3.20533 45.479 1.01339C46.8487 0.73627 48.1797 0.602254 49.1928 1.88335C49.9878 2.88506 50.0423 3.99126 49.2927 5.03158C49.1655 5.20875 49.0497 5.38365 48.9021 5.5472C48.7317 5.73573 48.5954 5.94924 48.4659 6.1673C47.4892 7.81637 45.7516 8.13438 44.0184 8.63182C29.4812 12.8181 18.6077 21.5041 11.9842 35.2055C9.23802 40.8864 7.89105 46.9625 7.74568 53.2817C7.70479 55.0648 7.70706 56.8479 7.72069 58.631C7.72978 59.9825 8.39531 60.7207 9.73319 60.732C18.4987 60.8115 26.0013 64.2937 32.8338 69.4271C36.534 72.2074 40.057 75.2216 43.6391 78.1586C47.9639 81.7043 52.5318 84.8435 57.9106 86.5879C66.2809 89.3046 74.5535 88.9116 82.6921 85.6407C86.5581 84.0871 90.1129 82.0019 93.1703 79.1308C93.3975 78.9195 93.6609 78.7469 94.0789 78.4244L94.0812 78.4312ZM79.8642 93.7862C79.3849 93.6544 79.2486 93.5726 79.1237 93.5885C78.524 93.668 77.9266 93.7612 77.3338 93.8747C71.3076 95.0127 65.2928 95.0627 59.3098 93.6067C52.1457 91.8623 45.881 88.3506 40.1956 83.7373C36.3796 80.6413 32.6635 77.4136 28.7498 74.4471C23.8866 70.7628 18.4896 68.1597 12.3408 67.4033C9.69458 67.0785 9.16306 67.769 10.0058 70.3357C12.0864 76.6731 15.3846 82.3403 20.1296 86.9923C32.8293 99.4375 47.8663 104.267 65.4337 100.332C70.022 99.3058 74.3468 97.6022 78.4014 95.2308C78.917 94.9287 79.2827 94.3699 79.8642 93.7839V93.7862Z" fill="white"/>
<path d="M69.0475 82.5268C69.2065 82.411 69.3019 82.3156 69.4177 82.261C74.4603 79.8919 78.7875 76.4575 83.1645 73.0889C86.2764 70.6926 89.5609 68.5619 93.2589 67.1536C93.7063 66.9833 94.1947 66.9197 94.7307 66.7925C92.6637 74.7448 80.8704 83.5921 69.0498 82.5268H69.0475Z" fill="white"/>
<path d="M17.4878 74.1702C19.2277 75.022 21.0017 75.8102 22.6985 76.7414C26.7621 78.9697 30.1443 82.1157 33.6719 85.0595C37.422 88.1918 41.1563 91.3423 45.4584 93.7205C46.9144 94.5246 48.4249 95.231 49.9355 95.9942C39.246 96.7166 19.807 83.917 17.2743 74.5109C17.3447 74.3973 17.4174 74.2837 17.4878 74.1702Z" fill="white"/>
</svg>
