<svg width="31" height="44" viewBox="0 0 31 44" fill="none" xmlns="http://www.w3.org/2000/svg">
<path d="M16.7372 1.23566C16.6204 1.0992 16.4754 0.989647 16.3122 0.914538C16.149 0.839428 15.9715 0.800537 15.7918 0.800537C15.6122 0.800537 15.4347 0.839428 15.2715 0.914538C15.1083 0.989647 14.9633 1.0992 14.8464 1.23566C11.5626 5.07645 0.855469 18.3548 0.855469 28.1907C0.855469 37.3565 6.62651 43.1265 15.7913 43.1265C24.9561 43.1265 30.7271 37.3565 30.7271 28.1907C30.7271 18.3548 20.02 5.07645 16.7372 1.23566ZM17.4508 37.733C17.2515 37.7335 17.055 37.686 16.8778 37.5947C16.7006 37.5033 16.5479 37.3707 16.4326 37.2081C16.3174 37.0455 16.2429 36.8575 16.2154 36.6601C16.1879 36.4626 16.2082 36.2614 16.2746 36.0735C16.3595 35.8283 16.5196 35.616 16.7321 35.4671C16.9446 35.3181 17.1986 35.2399 17.4581 35.2437C19.1056 35.2402 20.6846 34.5841 21.8495 33.4192C23.0145 32.2542 23.6705 30.6752 23.6741 29.0277C23.6703 28.7682 23.7485 28.5142 23.8975 28.3017C24.0464 28.0892 24.2586 27.9291 24.5039 27.8443C24.6918 27.7778 24.893 27.7575 25.0904 27.785C25.2879 27.8125 25.4758 27.887 25.6385 28.0023C25.8011 28.1175 25.9337 28.2702 26.025 28.4474C26.1164 28.6246 26.1639 28.8211 26.1634 29.0205C26.1609 31.3304 25.2422 33.5451 23.6088 35.1785C21.9754 36.8118 19.7608 37.7306 17.4508 37.733Z" fill="#002445"/>
</svg>
